<svg width="26" height="19" viewBox="0 0 26 19" fill="none" xmlns="http://www.w3.org/2000/svg">
<g opacity="0.7">
<path d="M9.2179 0.5C4.12698 0.5 -3.8147e-06 3.57217 -3.8147e-06 7.3634C-3.8147e-06 9.34073 1.12486 11.1221 2.9218 12.3751C2.85398 12.6775 2.59159 13.5853 1.77748 14.4047C1.45673 14.7274 1.24215 14.7571 1.38029 15.0643C1.51148 15.3567 3.97161 15.0718 5.36831 13.6C6.53986 14.0014 7.84316 14.2276 9.2179 14.2276C14.3083 14.2276 18.4364 11.1543 18.4364 7.3634C18.4364 3.57217 14.3085 0.5 9.2179 0.5Z" fill="#0A1128"/>
<path d="M23.243 17.7378C22.4286 16.9173 22.1671 16.0109 22.0976 15.7079C23.8951 14.4549 25.0199 12.6738 25.0199 10.6962C25.0199 7.72357 22.4814 5.1934 18.9323 4.23865C19.4604 5.21314 19.7525 6.28241 19.7525 7.40421C19.7525 11.8853 15.0877 15.5356 9.33053 15.5826C10.9949 16.8045 13.2794 17.5602 15.802 17.5602C17.1765 17.5602 18.4801 17.3342 19.6516 16.9329C21.0483 18.4054 23.5076 18.6895 23.6402 18.3971C23.7778 18.0905 23.5635 18.0608 23.243 17.7378Z" fill="#0A1128"/>
</g>
</svg>
