<svg width="20" height="20" viewBox="0 0 20 20" fill="none" xmlns="http://www.w3.org/2000/svg">
<g clip-path="url(#clip0_2782_52)">
<path d="M18.5417 0H1.45833C0.654167 0 0 0.654167 0 1.45833V3.54167C0 4.34583 0.654167 5 1.45833 5H18.5417C19.3458 5 20 4.34583 20 3.54167V1.45833C20 0.654167 19.3458 0 18.5417 0Z" fill="#0A1128"/>
<path d="M1.45833 20H7.70833C8.51249 20 9.16666 19.3458 9.16666 18.5416V8.12496C9.16666 7.32079 8.51249 6.66663 7.70833 6.66663H1.45833C0.654159 6.66663 -7.62939e-06 7.32079 -7.62939e-06 8.12496V18.5416C-7.62939e-06 19.3458 0.654159 20 1.45833 20Z" fill="#0A1128"/>
<path d="M18.5416 6.66663H12.2916C11.4874 6.66663 10.8333 7.32079 10.8333 8.12496V11.0416C10.8333 11.8458 11.4874 12.5 12.2916 12.5H18.5416C19.3458 12.5 19.9999 11.8458 19.9999 11.0416V8.12496C19.9999 7.32079 19.3458 6.66663 18.5416 6.66663Z" fill="#0A1128"/>
<path d="M18.5416 14.1666H12.2916C11.4874 14.1666 10.8333 14.8208 10.8333 15.625V18.5416C10.8333 19.3458 11.4874 20 12.2916 20H18.5416C19.3458 20 19.9999 19.3458 19.9999 18.5416V15.625C19.9999 14.8208 19.3458 14.1666 18.5416 14.1666Z" fill="#0A1128"/>
</g>
<defs>
<clipPath id="clip0_2782_52">
<rect width="20" height="20" fill="white"/>
</clipPath>
</defs>
</svg>
