<svg width="20" height="20" viewBox="0 0 20 20" fill="none" xmlns="http://www.w3.org/2000/svg">
<path d="M10.0937 0C6.73363 0 4 2.73363 4 6.09375V6.67969H8.6875V6.09375C8.6875 5.31832 9.31832 4.6875 10.0937 4.6875C10.8692 4.6875 11.5 5.31832 11.5 6.09375C11.5 6.50695 11.3186 6.89805 11.0023 7.16683L7.75 9.93195V14.1406H12.4375V12.0993L14.0381 10.7385C15.4041 9.57777 16.1875 7.88488 16.1875 6.09375C16.1875 2.73363 13.4539 0 10.0937 0V0Z" fill="#0A1128"/>
<path d="M10.0937 19.8281C11.3882 19.8281 12.4375 18.7788 12.4375 17.4844C12.4375 16.19 11.3882 15.1406 10.0937 15.1406C8.79933 15.1406 7.75 16.19 7.75 17.4844C7.75 18.7788 8.79933 19.8281 10.0937 19.8281Z" fill="#0A1128"/>
</svg>
