<svg width="21" height="21" viewBox="0 0 21 21" fill="none" xmlns="http://www.w3.org/2000/svg">
<path d="M14.7098 4.56688V1.02626C14.7098 0.461819 14.2481 0 13.6835 0H1.02626C0.461819 0 0 0.461819 0 1.02626V1.69334V15.069V15.531C0 15.9071 0.222357 16.2663 0.547341 16.4373L8.34695 20.4741C8.68904 20.6452 9.09955 20.4059 9.09955 20.0123V16.0783H13.6835C14.2481 16.0783 14.7098 15.6167 14.7098 15.0521V9.44181H12.6573V13.5127C12.6573 13.8034 12.4349 14.0258 12.1441 14.0258H9.11665V8.75763V5.42227V5.31964C9.11665 4.94335 8.89429 4.58415 8.56931 4.41311L3.96822 2.0527H12.1441C12.4349 2.0527 12.6573 2.27506 12.6573 2.56583V4.58415H14.7098V4.56688Z" fill="#CC000E"/>
<path d="M17.3439 4.89056L20.6792 8.22592C21.1068 8.65353 21.1068 9.2864 20.6792 9.71401L17.3439 13.0494C16.9162 13.477 16.2661 13.4943 15.8385 13.0666C15.4282 12.6563 15.4793 11.972 15.8729 11.5615L17.3779 10.0734H11.5455C11.2549 10.0734 10.9639 9.95364 10.7758 9.73128C10.2968 9.21815 10.4166 8.31162 11.0323 7.96953C11.1863 7.88401 11.3744 7.83269 11.5455 7.83269H17.3781C17.3781 7.83269 15.8902 6.34461 15.873 6.34461C15.4795 5.95121 15.4282 5.24993 15.8387 4.85653C16.2492 4.44602 16.9162 4.46295 17.3439 4.89056Z" fill="#CC000E"/>
</svg>
