<svg width="20" height="20" viewBox="0 0 20 20" fill="none" xmlns="http://www.w3.org/2000/svg">
<g clip-path="url(#clip0_2691_12)">
<path d="M9.97282 9.97753C11.6769 9.97753 12.9135 9.13757 13.549 7.54847C14.0367 6.32886 14.1024 4.89019 14.1024 3.6437C14.1024 1.36538 12.5586 0.00518799 9.97282 0.00518799C7.387 0.00518799 5.84321 1.36534 5.84321 3.6437C5.84321 4.89019 5.90899 6.32886 6.39665 7.54847C7.03212 9.13757 8.26872 9.97753 9.97282 9.97753Z" fill="#0A1128"/>
<path d="M11.5052 11.054H8.41633C5.45848 11.054 3.05215 13.4603 3.05215 16.4181V16.7847C3.05215 18.5548 4.49215 19.9948 6.26223 19.9948H13.6594C15.4294 19.9948 16.8695 18.5548 16.8695 16.7847V16.4181C16.8694 13.4603 14.4631 11.054 11.5052 11.054Z" fill="#0A1128"/>
<path d="M15.3522 3.64377C15.3522 5.72221 15.1451 8.00096 13.765 9.59026C14.1092 9.7253 14.4949 9.79448 14.9192 9.79448C16.21 9.79448 17.1466 9.15842 17.6278 7.95499C17.9857 7.06006 18.0339 6.01655 18.0339 5.11377C18.0339 3.5301 17.0286 2.45592 15.2076 2.35608C15.3033 2.76073 15.3522 3.19112 15.3522 3.64377Z" fill="#0A1128"/>
<path d="M5.09762 9.79434C5.50004 9.79434 5.86797 9.7325 6.19848 9.61094C4.80051 8.01958 4.59332 5.71985 4.59332 3.64364C4.59332 3.1927 4.64192 2.76383 4.73692 2.36047C3.05785 2.4775 1.98285 3.46129 1.98285 5.1136C1.98285 6.01633 2.0311 7.05989 2.38895 7.95485C2.8702 9.15829 3.8068 9.79434 5.09762 9.79434Z" fill="#0A1128"/>
<path d="M1.8023 16.4181C1.8023 14.0088 3.09734 11.8965 5.02777 10.7402H3.9918C1.79074 10.7402 0 12.5309 0 14.732V14.9924C0 16.1356 0.78332 17.0991 1.84137 17.3747C1.79496 17.0251 1.8023 16.8117 1.8023 16.4181Z" fill="#0A1128"/>
<path d="M16.008 10.7402H14.8945C16.8246 11.8966 18.1193 14.009 18.1193 16.4181C18.1193 16.8079 18.1272 17.0317 18.0776 17.3937C19.1762 17.147 19.9998 16.1644 19.9998 14.9924V14.732C19.9998 12.5309 18.209 10.7402 16.008 10.7402Z" fill="#0A1128"/>
</g>
<defs>
<clipPath id="clip0_2691_12">
<rect width="20" height="20" fill="white"/>
</clipPath>
</defs>
</svg>
