<svg width="20" height="20" viewBox="0 0 20 20" fill="none" xmlns="http://www.w3.org/2000/svg">
<path d="M19.5547 8.30469L17.2148 7.73047C17.0859 7.32031 16.9219 6.92188 16.7227 6.53516L17.918 4.54297C18.0586 4.30859 18.0234 4.01562 17.8359 3.82812L16.1719 2.16406C15.9844 1.97656 15.6914 1.94141 15.457 2.08203L13.4648 3.27734C13.0781 3.07812 12.6797 2.91406 12.2695 2.78516L11.707 0.445312C11.6367 0.1875 11.4023 0 11.1328 0H8.78906C8.51953 0 8.28516 0.1875 8.21484 0.445312L7.65234 2.78516C7.24219 2.91406 6.84375 3.07812 6.45703 3.27734L4.46484 2.08203C4.23047 1.94141 3.9375 1.97656 3.75 2.16406L2.08594 3.82812C1.89844 4.01562 1.86328 4.30859 2.00391 4.54297L3.19922 6.53516C3 6.92188 2.83594 7.32031 2.70703 7.73047L0.445312 8.30469C0.1875 8.36328 0 8.59766 0 8.86719V11.2109C0 11.4805 0.1875 11.7148 0.445312 11.7734L2.70703 12.3477C2.83594 12.7578 3 13.1563 3.19922 13.543L2.00391 15.5352C1.86328 15.7695 1.89844 16.0625 2.08594 16.25L3.75 17.9141C3.9375 18.1016 4.23047 18.1367 4.46484 17.9961L6.45703 16.8008C6.84375 17 7.24219 17.1641 7.65234 17.293L8.21484 19.5547C8.28516 19.8125 8.51953 20 8.78906 20H11.1328C11.4023 20 11.6367 19.8125 11.707 19.5547L12.2695 17.293C12.6797 17.1641 13.0781 17 13.4648 16.8008L15.457 17.9961C15.6914 18.1367 15.9844 18.1016 16.1719 17.9141L17.8359 16.25C18.0234 16.0625 18.0586 15.7695 17.918 15.5352L16.7227 13.543C16.9219 13.1563 17.0859 12.7578 17.2148 12.3477L19.5547 11.7734C19.8125 11.7148 20 11.4805 20 11.2109V8.86719C20 8.59766 19.8125 8.36328 19.5547 8.30469ZM9.96094 12.9688C8.34375 12.9688 7.03125 11.6562 7.03125 10.0391C7.03125 8.42188 8.34375 7.10938 9.96094 7.10938C11.5781 7.10938 12.8906 8.42188 12.8906 10.0391C12.8906 11.6562 11.5781 12.9688 9.96094 12.9688Z" fill="#0A1128"/>
</svg>
