<svg width="149" className="" height="165" viewBox="0 0 149 165" fill="none" xmlns="http://www.w3.org/2000/svg">
<path d="M148.519 124.161C136.781 124.161 125.067 124.161 113.329 124.161C113.329 114.584 113.28 105.006 113.255 95.429H35.5812V164.459H0.562683L0.562683 -3.05176e-05L35.5812 -3.05176e-05V55.7692C31.8485 63.7994 28.0912 71.805 24.3586 79.8352C28.214 75.5868 34.7217 69.4721 44.2498 64.6098C48.0316 62.6943 60.2611 56.6287 75.6093 57.0953C102.401 57.9057 119.567 78.0917 122.587 81.7507C119.542 73.0574 116.497 64.3397 113.452 55.6464C113.378 37.1058 113.304 18.5652 113.231 0.0245266L148.495 0.0245266V124.185L148.519 124.161Z" fill="#FFF"/>
<path d="M148.633 129.223H113.319V164.217H148.633V129.223Z" fill="#FFC000"/>
</svg>
