<svg width="30" height="30" viewBox="0 0 30 30" fill="none" xmlns="http://www.w3.org/2000/svg">
<g clip-path="url(#clip0_1217_1950)">
<path fill-rule="evenodd" clip-rule="evenodd" d="M4.33064 4.33064C6.8635 1.79993 10.5171 0.535645 14.9999 0.535645C19.4828 0.535645 23.1364 1.79993 25.6692 4.33064C28.1999 6.8635 29.4642 10.5171 29.4642 14.9999C29.4642 19.4828 28.1999 23.1364 25.6692 25.6692C23.1364 28.1999 19.4828 29.4642 14.9999 29.4642C10.5171 29.4642 6.8635 28.1999 4.33064 25.6692C1.79993 23.1364 0.535645 19.4828 0.535645 14.9999C0.535645 10.5171 1.79993 6.8635 4.33064 4.33064ZM14.9956 7.17422C15.7349 7.17422 16.3349 7.77422 16.3349 8.5135V13.6649H21.4864C21.6622 13.6649 21.8364 13.6996 21.9989 13.7669C22.1614 13.8342 22.309 13.9328 22.4334 14.0572C22.5577 14.1816 22.6564 14.3292 22.7237 14.4917C22.791 14.6542 22.8256 14.8283 22.8256 15.0042C22.8256 15.1801 22.791 15.3542 22.7237 15.5167C22.6564 15.6792 22.5577 15.8269 22.4334 15.9512C22.309 16.0756 22.1614 16.1742 21.9989 16.2416C21.8364 16.3089 21.6622 16.3435 21.4864 16.3435H16.3349V21.6792C16.3349 22.0344 16.1938 22.3751 15.9427 22.6262C15.6915 22.8774 15.3508 23.0185 14.9956 23.0185C14.6404 23.0185 14.2998 22.8774 14.0486 22.6262C13.7975 22.3751 13.6564 22.0344 13.6564 21.6792V16.3435H8.32064C7.96544 16.3435 7.62479 16.2024 7.37363 15.9512C7.12246 15.7001 6.98136 15.3594 6.98136 15.0042C6.98136 14.649 7.12246 14.3084 7.37363 14.0572C7.62479 13.806 7.96544 13.6649 8.32064 13.6649H13.6564V8.5135C13.6564 7.77422 14.2564 7.17422 14.9956 7.17422Z" fill="#FFC000"/>
</g>
<defs>
<clipPath id="clip0_1217_1950">
<rect width="30" height="30" fill="white"/>
</clipPath>
</defs>
</svg>
