<svg width="250" height="50" viewBox="0 0 250 50" fill="none" xmlns="http://www.w3.org/2000/svg">
<mask id="path-1-inside-1_1634_2264" fill="white">
<path d="M0 0H250V50H0V0Z"/>
</mask>
<path d="M0 50.5H0.992063V49.5H0V50.5ZM2.97619 50.5H4.96032V49.5H2.97619V50.5ZM6.94444 50.5H8.92857V49.5H6.94444V50.5ZM10.9127 50.5H12.8968V49.5H10.9127V50.5ZM14.881 50.5H16.8651V49.5H14.881V50.5ZM18.8492 50.5H20.8333V49.5H18.8492V50.5ZM22.8175 50.5H24.8016V49.5H22.8175V50.5ZM26.7857 50.5H28.7698V49.5H26.7857V50.5ZM30.754 50.5H32.7381V49.5H30.754V50.5ZM34.7222 50.5H36.7063V49.5H34.7222V50.5ZM38.6905 50.5H40.6746V49.5H38.6905V50.5ZM42.6587 50.5H44.6429V49.5H42.6587V50.5ZM46.627 50.5H48.6111V49.5H46.627V50.5ZM50.5952 50.5H52.5794V49.5H50.5952V50.5ZM54.5635 50.5H56.5476V49.5H54.5635V50.5ZM58.5317 50.5H60.5159V49.5H58.5317V50.5ZM62.5 50.5H64.4841V49.5H62.5V50.5ZM66.4682 50.5H68.4524V49.5H66.4682V50.5ZM70.4365 50.5H72.4206V49.5H70.4365V50.5ZM74.4047 50.5H76.3889V49.5H74.4047V50.5ZM78.373 50.5H80.3571V49.5H78.373V50.5ZM82.3412 50.5H84.3254V49.5H82.3412V50.5ZM86.3095 50.5H88.2936V49.5H86.3095V50.5ZM90.2777 50.5H92.2618V49.5H90.2777V50.5ZM94.246 50.5H96.2301V49.5H94.246V50.5ZM98.2142 50.5H100.198V49.5H98.2142V50.5ZM102.182 50.5H104.167V49.5H102.182V50.5ZM106.151 50.5H108.135V49.5H106.151V50.5ZM110.119 50.5H112.103V49.5H110.119V50.5ZM114.087 50.5H116.071V49.5H114.087V50.5ZM118.055 50.5H120.04V49.5H118.055V50.5ZM122.024 50.5H124.008V49.5H122.024V50.5ZM125.992 50.5H127.976V49.5H125.992V50.5ZM129.96 50.5H131.944V49.5H129.96V50.5ZM133.928 50.5H135.913V49.5H133.928V50.5ZM137.897 50.5H139.881V49.5H137.897V50.5ZM141.865 50.5H143.849V49.5H141.865V50.5ZM145.833 50.5H147.817V49.5H145.833V50.5ZM149.801 50.5H151.786V49.5H149.801V50.5ZM153.77 50.5H155.754V49.5H153.77V50.5ZM157.738 50.5H159.722V49.5H157.738V50.5ZM161.706 50.5H163.69V49.5H161.706V50.5ZM165.675 50.5H167.659V49.5H165.675V50.5ZM169.643 50.5H171.627V49.5H169.643V50.5ZM173.611 50.5H175.595V49.5H173.611V50.5ZM177.579 50.5H179.563V49.5H177.579V50.5ZM181.548 50.5H183.532V49.5H181.548V50.5ZM185.516 50.5H187.5V49.5H185.516V50.5ZM189.484 50.5H191.468V49.5H189.484V50.5ZM193.452 50.5H195.437V49.5H193.452V50.5ZM197.421 50.5H199.405V49.5H197.421V50.5ZM201.389 50.5H203.373V49.5H201.389V50.5ZM205.357 50.5H207.341V49.5H205.357V50.5ZM209.325 50.5H211.31V49.5H209.325V50.5ZM213.294 50.5H215.278V49.5H213.294V50.5ZM217.262 50.5H219.246V49.5H217.262V50.5ZM221.23 50.5H223.214V49.5H221.23V50.5ZM225.198 50.5H227.183V49.5H225.198V50.5ZM229.167 50.5H231.151V49.5H229.167V50.5ZM233.135 50.5H235.119V49.5H233.135V50.5ZM237.103 50.5H239.087V49.5H237.103V50.5ZM241.072 50.5H243.056V49.5H241.072V50.5ZM245.04 50.5H247.024V49.5H245.04V50.5ZM249.008 50.5H250V49.5H249.008V50.5ZM250 -0.5H249.008V0.5H250V-0.5ZM247.024 -0.5H245.04V0.5H247.024V-0.5ZM243.056 -0.5H241.071V0.5H243.056V-0.5ZM239.087 -0.5H237.103V0.5H239.087V-0.5ZM235.119 -0.5H233.135V0.5H235.119V-0.5ZM231.151 -0.5H229.167V0.5H231.151V-0.5ZM227.183 -0.5H225.198V0.5H227.183V-0.5ZM223.214 -0.5H221.23V0.5H223.214V-0.5ZM219.246 -0.5H217.262V0.5H219.246V-0.5ZM215.278 -0.5H213.294V0.5H215.278V-0.5ZM211.31 -0.5H209.325V0.5H211.31V-0.5ZM207.341 -0.5H205.357V0.5H207.341V-0.5ZM203.373 -0.5H201.389V0.5H203.373V-0.5ZM199.405 -0.5H197.421V0.5H199.405V-0.5ZM195.437 -0.5H193.452V0.5H195.437V-0.5ZM191.468 -0.5H189.484V0.5H191.468V-0.5ZM187.5 -0.5H185.516V0.5H187.5V-0.5ZM183.532 -0.5H181.548V0.5H183.532V-0.5ZM179.564 -0.5H177.579V0.5H179.564V-0.5ZM175.595 -0.5H173.611V0.5H175.595V-0.5ZM171.627 -0.5H169.643V0.5H171.627V-0.5ZM167.659 -0.5H165.675V0.5H167.659V-0.5ZM163.691 -0.5H161.706V0.5H163.691V-0.5ZM159.722 -0.5H157.738V0.5H159.722V-0.5ZM155.754 -0.5H153.77V0.5H155.754V-0.5ZM151.786 -0.5H149.802V0.5H151.786V-0.5ZM147.818 -0.5H145.833V0.5H147.818V-0.5ZM143.849 -0.5H141.865V0.5H143.849V-0.5ZM139.881 -0.5H137.897V0.5H139.881V-0.5ZM135.913 -0.5H133.929V0.5H135.913V-0.5ZM131.945 -0.5H129.96V0.5H131.945V-0.5ZM127.976 -0.5H125.992V0.5H127.976V-0.5ZM124.008 -0.5H122.024V0.5H124.008V-0.5ZM120.04 -0.5H118.056V0.5H120.04V-0.5ZM116.072 -0.5H114.087V0.5H116.072V-0.5ZM112.103 -0.5H110.119V0.5H112.103V-0.5ZM108.135 -0.5H106.151V0.5H108.135V-0.5ZM104.167 -0.5H102.183V0.5H104.167V-0.5ZM100.199 -0.5H98.2144V0.5H100.199V-0.5ZM96.2302 -0.5H94.2461V0.5H96.2302V-0.5ZM92.262 -0.5H90.2778V0.5H92.262V-0.5ZM88.2937 -0.5H86.3096V0.5H88.2937V-0.5ZM84.3254 -0.5H82.3413V0.5H84.3254V-0.5ZM80.3572 -0.5H78.3731V0.5H80.3572V-0.5ZM76.3889 -0.5H74.4048V0.5H76.3889V-0.5ZM72.4207 -0.5H70.4365V0.5H72.4207V-0.5ZM68.4524 -0.5H66.4683V0.5H68.4524V-0.5ZM64.4841 -0.5H62.5V0.5H64.4841V-0.5ZM60.5159 -0.5H58.5317V0.5H60.5159V-0.5ZM56.5476 -0.5H54.5635V0.5H56.5476V-0.5ZM52.5794 -0.5H50.5952V0.5H52.5794V-0.5ZM48.6111 -0.5H46.627V0.5H48.6111V-0.5ZM44.6428 -0.5H42.6587V0.5H44.6428V-0.5ZM40.6746 -0.5H38.6904V0.5H40.6746V-0.5ZM36.7063 -0.5H34.7222V0.5H36.7063V-0.5ZM32.7381 -0.5H30.7539V0.5H32.7381V-0.5ZM28.7698 -0.5H26.7857V0.5H28.7698V-0.5ZM24.8015 -0.5H22.8174V0.5H24.8015V-0.5ZM20.8333 -0.5H18.8491V0.5H20.8333V-0.5ZM16.865 -0.5H14.8809V0.5H16.865V-0.5ZM12.8967 -0.5H10.9126V0.5H12.8967V-0.5ZM8.92848 -0.5H6.94436V0.5H8.92848V-0.5ZM4.96022 -0.5H2.97609V0.5H4.96022V-0.5ZM0.991955 -0.5H0V0.5H0.991955V-0.5ZM0 51H0.992063V49H0V51ZM2.97619 51H4.96032V49H2.97619V51ZM6.94444 51H8.92857V49H6.94444V51ZM10.9127 51H12.8968V49H10.9127V51ZM14.881 51H16.8651V49H14.881V51ZM18.8492 51H20.8333V49H18.8492V51ZM22.8175 51H24.8016V49H22.8175V51ZM26.7857 51H28.7698V49H26.7857V51ZM30.754 51H32.7381V49H30.754V51ZM34.7222 51H36.7063V49H34.7222V51ZM38.6905 51H40.6746V49H38.6905V51ZM42.6587 51H44.6429V49H42.6587V51ZM46.627 51H48.6111V49H46.627V51ZM50.5952 51H52.5794V49H50.5952V51ZM54.5635 51H56.5476V49H54.5635V51ZM58.5317 51H60.5159V49H58.5317V51ZM62.5 51H64.4841V49H62.5V51ZM66.4682 51H68.4524V49H66.4682V51ZM70.4365 51H72.4206V49H70.4365V51ZM74.4047 51H76.3889V49H74.4047V51ZM78.373 51H80.3571V49H78.373V51ZM82.3412 51H84.3254V49H82.3412V51ZM86.3095 51H88.2936V49H86.3095V51ZM90.2777 51H92.2618V49H90.2777V51ZM94.246 51H96.2301V49H94.246V51ZM98.2142 51H100.198V49H98.2142V51ZM102.182 51H104.167V49H102.182V51ZM106.151 51H108.135V49H106.151V51ZM110.119 51H112.103V49H110.119V51ZM114.087 51H116.071V49H114.087V51ZM118.055 51H120.04V49H118.055V51ZM122.024 51H124.008V49H122.024V51ZM125.992 51H127.976V49H125.992V51ZM129.96 51H131.944V49H129.96V51ZM133.928 51H135.913V49H133.928V51ZM137.897 51H139.881V49H137.897V51ZM141.865 51H143.849V49H141.865V51ZM145.833 51H147.817V49H145.833V51ZM149.801 51H151.786V49H149.801V51ZM153.77 51H155.754V49H153.77V51ZM157.738 51H159.722V49H157.738V51ZM161.706 51H163.69V49H161.706V51ZM165.675 51H167.659V49H165.675V51ZM169.643 51H171.627V49H169.643V51ZM173.611 51H175.595V49H173.611V51ZM177.579 51H179.563V49H177.579V51ZM181.548 51H183.532V49H181.548V51ZM185.516 51H187.5V49H185.516V51ZM189.484 51H191.468V49H189.484V51ZM193.452 51H195.437V49H193.452V51ZM197.421 51H199.405V49H197.421V51ZM201.389 51H203.373V49H201.389V51ZM205.357 51H207.341V49H205.357V51ZM209.325 51H211.31V49H209.325V51ZM213.294 51H215.278V49H213.294V51ZM217.262 51H219.246V49H217.262V51ZM221.23 51H223.214V49H221.23V51ZM225.198 51H227.183V49H225.198V51ZM229.167 51H231.151V49H229.167V51ZM233.135 51H235.119V49H233.135V51ZM237.103 51H239.087V49H237.103V51ZM241.072 51H243.056V49H241.072V51ZM245.04 51H247.024V49H245.04V51ZM249.008 51H250V49H249.008V51ZM250 -1H249.008V1H250V-1ZM247.024 -1H245.04V1H247.024V-1ZM243.056 -1H241.071V1H243.056V-1ZM239.087 -1H237.103V1H239.087V-1ZM235.119 -1H233.135V1H235.119V-1ZM231.151 -1H229.167V1H231.151V-1ZM227.183 -1H225.198V1H227.183V-1ZM223.214 -1H221.23V1H223.214V-1ZM219.246 -1H217.262V1H219.246V-1ZM215.278 -1H213.294V1H215.278V-1ZM211.31 -1H209.325V1H211.31V-1ZM207.341 -1H205.357V1H207.341V-1ZM203.373 -1H201.389V1H203.373V-1ZM199.405 -1H197.421V1H199.405V-1ZM195.437 -1H193.452V1H195.437V-1ZM191.468 -1H189.484V1H191.468V-1ZM187.5 -1H185.516V1H187.5V-1ZM183.532 -1H181.548V1H183.532V-1ZM179.564 -1H177.579V1H179.564V-1ZM175.595 -1H173.611V1H175.595V-1ZM171.627 -1H169.643V1H171.627V-1ZM167.659 -1H165.675V1H167.659V-1ZM163.691 -1H161.706V1H163.691V-1ZM159.722 -1H157.738V1H159.722V-1ZM155.754 -1H153.77V1H155.754V-1ZM151.786 -1H149.802V1H151.786V-1ZM147.818 -1H145.833V1H147.818V-1ZM143.849 -1H141.865V1H143.849V-1ZM139.881 -1H137.897V1H139.881V-1ZM135.913 -1H133.929V1H135.913V-1ZM131.945 -1H129.96V1H131.945V-1ZM127.976 -1H125.992V1H127.976V-1ZM124.008 -1H122.024V1H124.008V-1ZM120.04 -1H118.056V1H120.04V-1ZM116.072 -1H114.087V1H116.072V-1ZM112.103 -1H110.119V1H112.103V-1ZM108.135 -1H106.151V1H108.135V-1ZM104.167 -1H102.183V1H104.167V-1ZM100.199 -1H98.2144V1H100.199V-1ZM96.2302 -1H94.2461V1H96.2302V-1ZM92.262 -1H90.2778V1H92.262V-1ZM88.2937 -1H86.3096V1H88.2937V-1ZM84.3254 -1H82.3413V1H84.3254V-1ZM80.3572 -1H78.3731V1H80.3572V-1ZM76.3889 -1H74.4048V1H76.3889V-1ZM72.4207 -1H70.4365V1H72.4207V-1ZM68.4524 -1H66.4683V1H68.4524V-1ZM64.4841 -1H62.5V1H64.4841V-1ZM60.5159 -1H58.5317V1H60.5159V-1ZM56.5476 -1H54.5635V1H56.5476V-1ZM52.5794 -1H50.5952V1H52.5794V-1ZM48.6111 -1H46.627V1H48.6111V-1ZM44.6428 -1H42.6587V1H44.6428V-1ZM40.6746 -1H38.6904V1H40.6746V-1ZM36.7063 -1H34.7222V1H36.7063V-1ZM32.7381 -1H30.7539V1H32.7381V-1ZM28.7698 -1H26.7857V1H28.7698V-1ZM24.8015 -1H22.8174V1H24.8015V-1ZM20.8333 -1H18.8491V1H20.8333V-1ZM16.865 -1H14.8809V1H16.865V-1ZM12.8967 -1H10.9126V1H12.8967V-1ZM8.92848 -1H6.94436V1H8.92848V-1ZM4.96022 -1H2.97609V1H4.96022V-1ZM0.991955 -1H0V1H0.991955V-1Z" fill="#0A1128" fill-opacity="0.8" mask="url(#path-1-inside-1_1634_2264)"/>
</svg>
