<svg width="29" height="30" viewBox="0 0 29 30" fill="none" xmlns="http://www.w3.org/2000/svg">
<path d="M3.375 0C1.515 0 0 1.515 0 3.375V26.625C0 28.485 1.515 30 3.375 30H20.625C22.485 30 24 28.485 24 26.625V18.5171L20.0171 22.5073C19.5596 22.9573 18.99 23.3027 18.375 23.4902L14.647 24.6372C14.392 24.7122 14.13 24.75 13.875 24.75C13.1925 24.75 12.517 24.4805 12.022 23.978C11.8045 23.768 11.6324 23.52 11.5049 23.25H7.11768C6.49518 23.25 5.99268 22.7475 5.99268 22.125C5.99268 21.555 6.4193 21.0823 6.9668 21.0073L7.11768 21H11.4668L12.3896 18H7.125C6.5025 18 6 17.4975 6 16.875C6 16.2525 6.5025 15.75 7.125 15.75H13.7256L17.4829 12H15.375C13.515 12 12 10.485 12 8.625V0H3.375ZM14.25 0.660645V8.625C14.25 9.2475 14.7525 9.75 15.375 9.75H19.7329L21.3296 8.15186C21.3971 8.07686 21.4729 8.00953 21.5479 7.95703L14.25 0.660645ZM26.9707 7.48535C26.581 7.49696 26.2111 7.65983 25.9395 7.93945L25.5044 8.37451C24.4363 8.07533 23.2359 8.36637 22.3916 9.20947L14.5547 17.0464C14.2719 17.3291 14.063 17.6791 13.9468 18.0586L12.7998 21.7954C12.6776 22.1937 12.7848 22.6257 13.0796 22.9204C13.2941 23.1349 13.581 23.25 13.875 23.25C13.9853 23.25 14.0966 23.2339 14.2046 23.2002L17.9399 22.0547C18.3217 21.9384 18.6709 21.7273 18.9536 21.4453L26.8447 13.5557C27.5032 12.8972 27.8297 11.9873 27.7412 11.0596C27.7227 10.8651 27.6818 10.677 27.6284 10.4927L28.0605 10.0605C28.2773 9.84985 28.4253 9.57859 28.4853 9.28231C28.5452 8.98603 28.5143 8.67856 28.3964 8.40018C28.2786 8.1218 28.0795 7.88551 27.8251 7.72226C27.5706 7.55902 27.2729 7.47644 26.9707 7.48535Z" fill="#E0E0E0"/>
</svg>
