<svg width="14" height="15" viewBox="0 0 14 15" fill="none" xmlns="http://www.w3.org/2000/svg">
<path d="M13.0438 7.38284C13.028 7.35879 13.028 7.32719 13.0438 7.3028L13.5955 6.44127C13.7632 6.1802 13.8137 5.85867 13.7333 5.55879C13.6529 5.2589 13.4488 5.00539 13.1727 4.86283L12.2637 4.3929C12.238 4.37951 12.2218 4.35202 12.2232 4.32283L12.2706 3.30019C12.285 2.99034 12.1675 2.68667 11.9484 2.46717C11.7292 2.24766 11.4252 2.12915 11.1154 2.14495L10.0924 2.19236C10.0707 2.19064 10.0364 2.17793 10.0226 2.15217L9.55306 1.24323C9.41016 0.967045 9.15665 0.762999 8.85676 0.682616C8.55653 0.601891 8.235 0.652731 7.97462 0.820022L7.11275 1.37205H7.1124C7.0887 1.38819 7.05744 1.38751 7.03236 1.37205L6.17083 0.820365C5.90976 0.652731 5.58823 0.601891 5.28835 0.682616C4.98846 0.762655 4.73495 0.967045 4.59239 1.24323L4.12246 2.15217C4.10907 2.17793 4.08296 2.19407 4.05239 2.1927L3.0294 2.14461C2.72608 2.1264 2.41589 2.24766 2.19639 2.46682C1.97688 2.68599 1.85974 2.98965 1.87417 3.29984L1.92157 4.32283C1.92295 4.35168 1.9068 4.37916 1.88138 4.39256L0.972448 4.86214C0.696263 5.00504 0.492216 5.25856 0.411834 5.55844C0.331452 5.85833 0.381949 6.1802 0.54924 6.44058L1.10127 7.3028C1.11707 7.32685 1.11707 7.35845 1.10127 7.38284L0.549583 8.24437C0.381949 8.50544 0.331452 8.82697 0.411834 9.12686C0.492216 9.42674 0.696263 9.68026 0.972448 9.82281L1.88138 10.2927C1.90715 10.3061 1.92329 10.3336 1.92192 10.3628L1.87417 11.3861C1.85974 11.696 1.97722 11.9997 2.19639 12.2192C2.41623 12.439 2.72265 12.5613 3.0294 12.5414L4.05239 12.494C4.07369 12.4926 4.10838 12.5087 4.12212 12.5342L4.5917 13.4431C4.7346 13.7193 4.98812 13.9233 5.288 14.0037C5.38144 14.0288 5.47762 14.0408 5.57278 14.0408C5.78266 14.0408 5.99083 13.981 6.17015 13.866L7.03236 13.3139C7.05607 13.2978 7.08733 13.2981 7.1124 13.3139L7.97393 13.8656C8.235 14.0333 8.55653 14.0841 8.85642 14.0034C9.15631 13.9233 9.40982 13.7189 9.55238 13.4428L10.0223 12.5338C10.0357 12.5084 10.0649 12.495 10.0924 12.4933L11.115 12.5407C11.4163 12.5579 11.7282 12.4376 11.948 12.2185C12.1675 11.999 12.2847 11.6956 12.2703 11.3855L12.2228 10.3625C12.2215 10.3336 12.2376 10.3061 12.263 10.2927L13.172 9.82316C13.4482 9.68026 13.6522 9.42674 13.7326 9.12686C13.813 8.82697 13.7625 8.5051 13.5952 8.24472L13.0438 7.38284ZM10.0326 6.04108C8.82825 6.92322 7.70805 8.04376 6.70397 9.37144C6.60675 9.50026 6.45423 9.57583 6.29278 9.57583C6.29209 9.57583 6.29141 9.57583 6.29072 9.57583C6.12858 9.57514 5.97606 9.49819 5.87953 9.36835C5.34503 8.6504 4.82529 8.12861 4.28975 7.77239C4.05307 7.61471 3.98849 7.2949 4.14617 7.05788C4.30418 6.8212 4.62434 6.7573 4.86067 6.91429C5.35121 7.24063 5.82251 7.67311 6.29072 8.22788C7.24878 7.0462 8.30061 6.03249 9.42322 5.21012C9.65303 5.04146 9.9749 5.0923 10.1436 5.32108C10.3119 5.55054 10.2621 5.8731 10.0326 6.04108Z" fill="#FFC000"/>
</svg>
