<svg width="30" height="30" viewBox="0 0 30 30" fill="none" xmlns="http://www.w3.org/2000/svg">
<path d="M21.6055 12.1973H10.3951" stroke="black" stroke-width="3" stroke-linecap="round" stroke-linejoin="round"/>
<path d="M21.6055 17.8027H14.1319" stroke="black" stroke-width="3" stroke-linecap="round" stroke-linejoin="round"/>
<path d="M15.9946 2.8501C18.204 2.85084 20.3716 3.45313 22.2648 4.59235C24.1579 5.73157 25.7052 7.36472 26.7406 9.3166C27.7725 11.268 28.2514 13.4643 28.1252 15.6682C27.9991 17.872 27.2729 19.9994 26.0251 21.8203L28.1446 27.1501L22.4746 25.2385C20.881 26.238 19.0775 26.8545 17.2055 27.0394C15.3336 27.2243 13.4442 26.9726 11.686 26.3041C9.92773 25.6356 8.34843 24.5685 7.07217 23.1866C5.79592 21.8047 4.85747 20.1457 4.33056 18.34C3.80794 16.5347 3.71299 14.6325 4.05323 12.7841C4.39347 10.9358 5.15955 9.19206 6.29076 7.6912C7.42253 6.18757 8.88827 4.96755 10.5723 4.1274C12.2563 3.28726 14.1126 2.84999 15.9946 2.8501Z" stroke="black" stroke-width="3" stroke-linecap="round" stroke-linejoin="round"/>
</svg>
