<svg width="30" height="30" viewBox="0 0 30 30" fill="none" xmlns="http://www.w3.org/2000/svg">
<path d="M8.39453 12.1973H19.6049" stroke="black" stroke-opacity="0.35" stroke-width="3" stroke-linecap="round" stroke-linejoin="round"/>
<path d="M8.39453 17.8027H15.8681" stroke="black" stroke-opacity="0.35" stroke-width="3" stroke-linecap="round" stroke-linejoin="round"/>
<path d="M14.0054 2.8501C11.796 2.85084 9.62837 3.45313 7.73522 4.59235C5.84207 5.73157 4.29482 7.36472 3.25944 9.3166C2.22747 11.268 1.74865 13.4643 1.87476 15.6682C2.00087 17.872 2.72711 19.9994 3.97494 21.8203L1.85544 27.1501L7.52544 25.2385C9.11895 26.238 10.9225 26.8545 12.7945 27.0394C14.6664 27.2243 16.5558 26.9726 18.314 26.3041C20.0723 25.6356 21.6516 24.5685 22.9278 23.1866C24.2041 21.8047 25.1425 20.1457 25.6694 18.34C26.1921 16.5347 26.287 14.6325 25.9468 12.7841C25.6065 10.9358 24.8404 9.19206 23.7092 7.6912C22.5775 6.18757 21.1117 4.96755 19.4277 4.1274C17.7437 3.28726 15.8874 2.84999 14.0054 2.8501Z" stroke="black" stroke-opacity="0.35" stroke-width="3" stroke-linecap="round" stroke-linejoin="round"/>
</svg>
