<svg width="22" height="23" viewBox="0 0 22 23" fill="none" xmlns="http://www.w3.org/2000/svg">
<path d="M7.58643 2.18732C7.24759 1.81592 6.9686 1.39009 6.7645 0.925954C5.17377 2.12574 4.24 4.05362 4.24 6.35995C4.24 12.079 2.26427 13.5156 1.08811 14.3708L1.0875 14.3712H20.9125L20.9119 14.3708C19.7357 13.5156 17.76 12.079 17.76 6.35995C17.76 4.04712 16.8275 2.12185 15.2363 0.924408C15.0324 1.38904 14.7537 1.81498 14.4153 2.18634M7.58643 2.18732C6.44044 3.09374 5.74 4.53491 5.74 6.35995C5.74 9.38513 5.21822 11.4405 4.42345 12.9048C3.62057 14.3841 2.60867 15.1198 1.98331 15.5745L1.97071 15.5836L1.08813 14.3708L1.97024 15.584L1.9701 15.5841L1.96695 15.5863C1.83027 15.6853 1.73415 15.7553 1.65058 15.8226C1.63221 15.8373 1.61604 15.8508 1.60184 15.8629M7.58643 2.18732C8.43056 3.11256 9.64607 3.69995 11 3.69995C12.3542 3.69995 13.5708 3.11311 14.4153 2.18634M7.58643 2.18732C7.91208 1.92974 8.2737 1.71535 8.66545 1.5476L8.18259 0.419953C8.68692 1.46777 9.76221 2.19995 11 2.19995C12.2389 2.19995 13.3149 1.46826 13.8187 0.417613L13.336 1.54821C13.728 1.71558 14.0897 1.92937 14.4153 2.18634M1.60184 15.8629C1.5843 15.8183 1.58 15.7736 1.58 15.72C1.58 15.7693 1.56866 15.831 1.54399 15.8889C1.52681 15.9292 1.51082 15.9498 1.51079 15.9498C1.51078 15.9498 1.5121 15.9481 1.5151 15.9447C1.52742 15.9307 1.55311 15.9044 1.60184 15.8629ZM1.60184 15.8629C1.62217 15.9145 1.66029 15.9659 1.73015 16.0307C1.91178 16.1993 2.30531 16.4362 3.08185 16.658C4.63969 17.103 7.18967 17.34 11 17.34C14.8103 17.34 17.3603 17.103 18.9182 16.658C19.6947 16.4362 20.0882 16.1993 20.2699 16.0307C20.3397 15.9659 20.3778 15.9145 20.3982 15.8629M20.3982 15.8629C20.4469 15.9044 20.4726 15.9307 20.4849 15.9447C20.4876 15.9477 20.4889 15.9494 20.4892 15.9497C20.4882 15.9485 20.4727 15.928 20.456 15.8889C20.4313 15.831 20.42 15.7693 20.42 15.72C20.42 15.7736 20.4157 15.8183 20.3982 15.8629ZM20.3982 15.8629C20.384 15.8507 20.3678 15.8373 20.3494 15.8226C20.2659 15.7553 20.1697 15.6853 20.0331 15.5863L20.0309 15.5848L20.0303 15.5844L20.0298 15.584L20.0167 15.5745C19.3913 15.1198 18.3794 14.3841 17.5765 12.9048C16.7818 11.4405 16.26 9.38513 16.26 6.35995C16.26 4.52847 15.5608 3.09026 14.4153 2.18634M11 21.38C11.2078 21.38 11.4135 21.3791 11.6171 21.3774C11.4267 21.4564 11.2183 21.5 11 21.5C10.7817 21.5 10.5733 21.4564 10.3829 21.3774C10.5865 21.3791 10.7922 21.38 11 21.38Z" stroke="#0A1128" stroke-opacity="0.5" stroke-width="3"/>
</svg>
