<svg width="22" height="20" viewBox="0 0 22 20" fill="none" xmlns="http://www.w3.org/2000/svg">
<path d="M11 0.320312C8.33143 0.320312 6.16003 2.49171 6.16003 5.16031C6.16003 7.82891 8.33143 10.0003 11 10.0003C13.6686 10.0003 15.84 7.82891 15.84 5.16031C15.84 2.49171 13.6686 0.320312 11 0.320312ZM10.56 2.08031H10.6021H11.4039H11.4392V2.85977C11.7617 2.92005 12.0426 3.07042 12.2564 3.30406C12.5006 3.57158 12.6393 3.93887 12.6389 4.28031H11.8225C11.8 3.93139 11.636 3.54813 11.0129 3.54813C10.4405 3.54813 10.1742 3.77273 10.1742 4.25453C10.1742 4.65713 10.5339 4.75986 11.1702 4.90594C11.8786 5.06874 12.7605 5.27101 12.76 6.32305C12.76 6.52325 12.6923 7.49391 11.44 7.69719V8.24031H11.4039H10.603H10.5609V7.68344C9.70465 7.52064 9.27245 6.99267 9.24605 6.06867L9.24519 6.04031H10.0625L10.0616 6.06781C10.0541 6.35953 10.1305 6.5879 10.2885 6.74586C10.556 7.01338 10.9829 7.01656 11.0009 7.01656C11.8219 7.01656 11.9445 6.58558 11.9445 6.32906C11.9445 5.90138 11.5847 5.79959 10.9485 5.65703C10.2396 5.49863 9.35777 5.30186 9.35777 4.21242C9.35777 4.08966 9.39491 3.05427 10.56 2.85891V2.08031ZM5.8962 9.95648C4.7962 9.95648 3.82803 10.3523 0.22003 11.9803C3.04878e-05 12.0683 -0.0879695 12.3327 3.04952e-05 12.5527L2.33237 17.7441C2.37637 17.8761 2.5082 17.964 2.5962 18.008C2.7282 18.052 2.85969 18.0081 2.94769 17.9641L4.1362 17.1727C4.6642 16.8207 4.88369 16.776 5.58769 17.128L6.51237 17.6127C7.61237 18.1847 9.10769 18.9765 9.54769 19.1965C10.2517 19.5485 10.8237 19.6803 11.3077 19.6803C12.1877 19.6803 12.7597 19.3285 13.2877 18.9765C13.8157 18.6245 20.2404 14.444 20.8124 14.048C21.5164 13.564 21.9562 12.9927 21.9562 12.5527C22.0002 11.3207 20.8122 11.0127 19.7562 11.6727L15.0477 14.8403C14.2997 15.2803 13.64 15.2365 13.2 15.2365H10.56C9.37203 15.2365 7.9202 14.7965 7.8762 14.7965C7.7442 14.7525 7.69986 14.6207 7.74386 14.5327C7.78786 14.4007 7.87569 14.3563 8.00769 14.4003H8.05237C8.18437 14.4443 9.63637 14.8403 10.6924 14.8403H13.2C13.552 14.8403 13.8164 14.7523 13.9924 14.6203C14.1684 14.4883 14.2997 14.3563 14.3877 14.1803C14.3877 14.1363 14.4324 14.1367 14.4324 14.0927V14.048C14.4764 13.916 14.4762 13.8285 14.4762 13.6965C14.4762 13.1685 14.0362 12.6405 13.1562 12.5965C12.4522 12.5525 11.4844 12.3765 10.6924 12.1565C10.2524 12.0245 9.94369 11.8921 9.76769 11.8041C9.63569 11.7161 9.50369 11.584 9.32769 11.408C8.79969 10.836 8.0082 9.95648 5.8962 9.95648ZM15.4439 9.95648C14.9599 9.95648 14.4324 10.1323 13.9924 10.4403C13.6844 10.6163 12.3644 11.4525 11.5724 11.9365C12.1444 12.0685 12.76 12.1565 13.2 12.1565C13.508 12.1565 13.8162 12.2447 14.0362 12.3327L16.8962 10.3965C16.8962 10.3965 16.2359 9.95648 15.4439 9.95648ZM18.3477 10.4403C17.9077 10.4403 17.3804 10.6163 16.6324 11.1003L14.4324 12.5965C14.7844 12.9045 14.96 13.3005 14.96 13.6965C14.96 13.9605 14.8722 14.2687 14.6962 14.5327L14.74 14.488L14.7839 14.4441L19.6239 11.2327C19.4919 10.6607 18.7877 10.4403 18.3477 10.4403Z" fill="#0A1128" fill-opacity="0.8"/>
</svg>
