<svg width="30" height="30" viewBox="0 0 30 30" fill="none" xmlns="http://www.w3.org/2000/svg">
<path d="M14.9998 8.9252L16.3822 7.343C17.2296 6.19561 18.4564 5.38583 19.8445 5.05759C21.2326 4.72934 22.6922 4.90389 23.9638 5.5502C24.9353 6.08563 25.7442 6.87354 26.305 7.83069C26.8658 8.78784 27.1577 9.87869 27.1498 10.988C27.1505 11.8923 26.9537 12.7859 26.5731 13.6062C26.1926 14.4265 25.6375 15.1538 24.9466 15.7373L15.6694 24.8417C15.5824 24.9332 15.4776 25.006 15.3616 25.0558C15.2456 25.1056 15.1206 25.1313 14.9944 25.1313C14.8681 25.1313 14.7432 25.1056 14.6271 25.0558C14.5111 25.006 14.4064 24.9332 14.3194 24.8417L5.05297 15.7373C4.36208 15.1538 3.80696 14.4265 3.42641 13.6062C3.04586 12.7859 2.84906 11.8923 2.84977 10.988C2.84185 9.87869 3.1337 8.78784 3.6945 7.83069C4.25529 6.87354 5.0642 6.08563 6.03577 5.5502C7.30645 4.90305 8.76539 4.72722 10.1534 5.05397C11.5415 5.38072 12.7688 6.18888 13.6174 7.3349L14.9998 8.9252Z" stroke="black" stroke-width="3" stroke-linecap="round" stroke-linejoin="round"/>
</svg>
