<svg width="30" height="30" viewBox="0 0 30 30" fill="none" xmlns="http://www.w3.org/2000/svg">
<path fill-rule="evenodd" clip-rule="evenodd" d="M26.6945 2.98125C25.1739 2.9075 21.8839 2.8125 15.0001 2.8125C8.11637 2.8125 4.82637 2.9075 3.30574 2.98125C2.21387 3.03438 1.11699 3.74063 0.989494 5.06063C0.958244 5.38875 0.937619 5.78125 0.937619 6.25C0.937619 6.71875 0.957619 7.11125 0.989494 7.43937C1.11699 8.75938 2.21387 9.46563 3.30574 9.51875C4.82637 9.5925 8.11637 9.6875 15.0001 9.6875C21.8839 9.6875 25.1739 9.5925 26.6945 9.51875C27.7864 9.46563 28.8832 8.75938 29.0107 7.43937C29.042 7.11125 29.0626 6.71875 29.0626 6.25C29.0626 5.78125 29.0426 5.38875 29.0107 5.06063C28.8832 3.74063 27.7864 3.03438 26.6945 2.98125ZM15.0001 11.5625C21.8839 11.5625 25.1739 11.6575 26.6945 11.7312C27.7864 11.7844 28.8832 12.4906 29.0107 13.8106C29.042 14.1388 29.0626 14.5312 29.0626 15C29.0626 15.4688 29.0426 15.8612 29.0107 16.1894C28.8832 17.5094 27.7864 18.2156 26.6945 18.2687C25.1739 18.3425 21.8839 18.4375 15.0001 18.4375C8.11637 18.4375 4.82637 18.3425 3.30574 18.2687C2.21387 18.2156 1.11699 17.5094 0.989494 16.1894C0.953193 15.794 0.935881 15.3971 0.937619 15C0.937619 14.5312 0.957619 14.1388 0.989494 13.8106C1.11699 12.4906 2.21387 11.7844 3.30574 11.7312C4.82637 11.6575 8.11637 11.5625 15.0001 11.5625ZM15.0001 20.3125C21.8839 20.3125 25.1739 20.4075 26.6945 20.4813C27.7864 20.5344 28.8832 21.2406 29.0107 22.5606C29.042 22.8888 29.0626 23.2812 29.0626 23.75C29.0626 24.2188 29.0426 24.6112 29.0107 24.9394C28.8832 26.2594 27.7864 26.9656 26.6945 27.0187C25.1739 27.0925 21.8839 27.1875 15.0001 27.1875C8.11637 27.1875 4.82637 27.0925 3.30574 27.0187C2.21387 26.9656 1.11699 26.2594 0.989494 24.9394C0.953193 24.544 0.935881 24.1471 0.937619 23.75C0.937619 23.2812 0.957619 22.8888 0.989494 22.5606C1.11699 21.2406 2.21387 20.5344 3.30574 20.4813C4.82637 20.4075 8.11637 20.3125 15.0001 20.3125Z" fill="black"/>
</svg>
