<svg width="30" height="26" viewBox="0 0 30 26" fill="none" xmlns="http://www.w3.org/2000/svg">
<path fill-rule="evenodd" clip-rule="evenodd" d="M26.6944 0.98125C25.1737 0.9075 21.8837 0.8125 15 0.8125C8.11625 0.8125 4.82625 0.9075 3.30562 0.98125C2.21375 1.03438 1.11687 1.74063 0.989372 3.06063C0.958122 3.38875 0.937497 3.78125 0.937497 4.25C0.937497 4.71875 0.957497 5.11125 0.989372 5.43937C1.11687 6.75938 2.21375 7.46563 3.30562 7.51875C4.82625 7.5925 8.11625 7.6875 15 7.6875C21.8837 7.6875 25.1737 7.5925 26.6944 7.51875C27.7862 7.46563 28.8831 6.75938 29.0106 5.43937C29.0419 5.11125 29.0625 4.71875 29.0625 4.25C29.0625 3.78125 29.0425 3.38875 29.0106 3.06063C28.8831 1.74063 27.7862 1.03438 26.6944 0.98125ZM15 9.5625C21.8837 9.5625 25.1737 9.6575 26.6944 9.73125C27.7862 9.78438 28.8831 10.4906 29.0106 11.8106C29.0419 12.1388 29.0625 12.5312 29.0625 13C29.0625 13.4688 29.0425 13.8612 29.0106 14.1894C28.8831 15.5094 27.7862 16.2156 26.6944 16.2687C25.1737 16.3425 21.8837 16.4375 15 16.4375C8.11625 16.4375 4.82625 16.3425 3.30562 16.2687C2.21375 16.2156 1.11687 15.5094 0.989372 14.1894C0.95307 13.794 0.935759 13.3971 0.937497 13C0.937497 12.5312 0.957497 12.1388 0.989372 11.8106C1.11687 10.4906 2.21375 9.78438 3.30562 9.73125C4.82625 9.6575 8.11625 9.5625 15 9.5625ZM15 18.3125C21.8837 18.3125 25.1737 18.4075 26.6944 18.4813C27.7862 18.5344 28.8831 19.2406 29.0106 20.5606C29.0419 20.8888 29.0625 21.2812 29.0625 21.75C29.0625 22.2188 29.0425 22.6112 29.0106 22.9394C28.8831 24.2594 27.7862 24.9656 26.6944 25.0187C25.1737 25.0925 21.8837 25.1875 15 25.1875C8.11625 25.1875 4.82625 25.0925 3.30562 25.0187C2.21375 24.9656 1.11687 24.2594 0.989372 22.9394C0.95307 22.544 0.935759 22.1471 0.937497 21.75C0.937497 21.2812 0.957497 20.8888 0.989372 20.5606C1.11687 19.2406 2.21375 18.5344 3.30562 18.4813C4.82625 18.4075 8.11625 18.3125 15 18.3125Z" fill="black" fill-opacity="0.35"/>
</svg>
