<svg width="21" height="23" viewBox="0 0 21 23" fill="none" xmlns="http://www.w3.org/2000/svg">
<path d="M20.5654 17.2579C18.9338 17.2579 17.3057 17.2579 15.6741 17.2579C15.6741 15.9267 15.6673 14.5955 15.6639 13.2643H4.86743V22.8592H0L0 0L4.86743 0V7.75171C4.3486 8.86787 3.82636 9.98063 3.30753 11.0968C3.84343 10.5063 4.74797 9.65636 6.07234 8.98052C6.598 8.71427 8.29785 7.87118 10.4312 7.93603C14.1552 8.04867 16.5411 10.8544 16.9609 11.363C16.5377 10.1547 16.1144 8.94297 15.6912 7.73464C15.6809 5.15757 15.6707 2.58049 15.6604 0.00341335L20.562 0.00341335V17.2613L20.5654 17.2579Z" fill="#0A1128"/>
<path d="M20.5812 17.9615H15.6729V22.8255H20.5812V17.9615Z" fill="#FFC000"/>
</svg>
