<svg width="15" height="15" viewBox="0 0 15 15" fill="none" xmlns="http://www.w3.org/2000/svg">
<g clip-path="url(#clip0_481_42)">
<path d="M2.90395 2.50391C2.27112 2.50391 1.75195 3.02307 1.75195 3.65591V9.99191C1.75195 10.2023 1.81348 10.3975 1.91338 10.5679H1.17595C1.01668 10.5679 0.887947 10.6969 0.887947 10.8559C0.887947 11.6499 1.53393 12.2959 2.32795 12.2959H13.2719C14.066 12.2959 14.7119 11.6499 14.7119 10.8559C14.7119 10.6969 14.5832 10.5679 14.4239 10.5679H13.6865C13.7864 10.3975 13.8479 10.2023 13.8479 9.99191V3.65591C13.8479 3.02307 13.3288 2.50391 12.6959 2.50391H2.90395ZM2.90395 3.07991H12.6959C13.0175 3.07991 13.2719 3.33431 13.2719 3.65591V9.99191C13.2719 10.3135 13.0175 10.5679 12.6959 10.5679H2.90395C2.58235 10.5679 2.32795 10.3135 2.32795 9.99191V3.65591C2.32795 3.33431 2.58235 3.07991 2.90395 3.07991ZM6.35995 5.01603V8.63178L9.52345 6.82391L6.35995 5.01603Z" fill="black"/>
</g>
<defs>
<clipPath id="clip0_481_42">
<rect width="14.4" height="14.4" fill="white" transform="translate(0.599976 0.199951)"/>
</clipPath>
</defs>
</svg>
