<svg width="25" height="25" viewBox="0 0 25 25" fill="none" xmlns="http://www.w3.org/2000/svg">
<path d="M21.0658 12.6839C21.0421 12.6478 21.0421 12.6004 21.0658 12.5638L21.8933 11.2715C22.1448 10.8799 22.2205 10.3976 22.1 9.9478C21.9794 9.49797 21.6733 9.1177 21.2591 8.90386L19.8956 8.19897C19.857 8.17888 19.8328 8.13766 19.8348 8.09386L19.906 6.5599C19.9276 6.09513 19.7514 5.63963 19.4226 5.31037C19.0939 4.98111 18.6379 4.80335 18.1731 4.82705L16.6386 4.89815C16.6062 4.89558 16.5546 4.87651 16.534 4.83787L15.8297 3.47446C15.6153 3.06019 15.235 2.75412 14.7852 2.63354C14.3349 2.51246 13.8526 2.58872 13.462 2.83965L12.1692 3.66769H12.1687C12.1331 3.69191 12.0862 3.69088 12.0486 3.66769L10.7563 2.84017C10.3647 2.58872 9.88241 2.51246 9.43258 2.63354C8.98275 2.7536 8.60248 3.06019 8.38865 3.47446L7.68376 4.83787C7.66366 4.87651 7.6245 4.90073 7.57864 4.89867L6.04417 4.82653C5.58918 4.79922 5.1239 4.98111 4.79464 5.30986C4.46538 5.6386 4.28967 6.0941 4.31132 6.55938L4.38242 8.09386C4.38448 8.13714 4.36027 8.17836 4.32214 8.19846L2.95873 8.90283C2.54446 9.11718 2.23839 9.49745 2.11781 9.94728C1.99724 10.3971 2.07298 10.8799 2.32392 11.2705L3.15196 12.5638C3.17566 12.5999 3.17566 12.6473 3.15196 12.6839L2.32444 13.9762C2.07298 14.3678 1.99724 14.8501 2.11781 15.2999C2.23839 15.7497 2.54446 16.13 2.95873 16.3438L4.32214 17.0487C4.36078 17.0688 4.385 17.11 4.38294 17.1538L4.31132 18.6888C4.28967 19.1536 4.4659 19.6091 4.79464 19.9384C5.12441 20.2681 5.58403 20.4516 6.04417 20.4217L7.57864 20.3506C7.61059 20.3485 7.66263 20.3727 7.68324 20.4109L8.38762 21.7743C8.60197 22.1885 8.98224 22.4946 9.43207 22.6152C9.57222 22.6528 9.7165 22.6708 9.85923 22.6708C10.1741 22.6708 10.4863 22.5812 10.7553 22.4086L12.0486 21.5805C12.0842 21.5563 12.131 21.5568 12.1687 21.5805L13.461 22.4081C13.8526 22.6595 14.3349 22.7358 14.7847 22.6147C15.2345 22.4946 15.6148 22.188 15.8286 21.7738L16.5335 20.4104C16.5536 20.3722 16.5974 20.3521 16.6386 20.3496L18.1726 20.4207C18.6245 20.4464 19.0923 20.2661 19.4221 19.9373C19.7514 19.6081 19.9271 19.1531 19.9054 18.6878L19.8343 17.1533C19.8323 17.11 19.8565 17.0688 19.8946 17.0487L21.258 16.3444C21.6723 16.13 21.9784 15.7497 22.0989 15.2999C22.2195 14.8501 22.1438 14.3673 21.8928 13.9767L21.0658 12.6839ZM16.549 10.6712C14.7424 11.9945 13.0621 13.6753 11.556 15.6668C11.4102 15.86 11.1814 15.9734 10.9392 15.9734C10.9382 15.9734 10.9372 15.9734 10.9361 15.9734C10.6929 15.9723 10.4642 15.8569 10.3194 15.6621C9.5176 14.5852 8.738 13.8025 7.93469 13.2682C7.57967 13.0317 7.4828 12.552 7.71931 12.1964C7.95633 11.8414 8.43657 11.7456 8.79107 11.9811C9.52688 12.4706 10.2338 13.1193 10.9361 13.9514C12.3732 12.1789 13.951 10.6584 15.6349 9.4248C15.9796 9.1718 16.4624 9.24806 16.7154 9.59123C16.9679 9.93543 16.8932 10.4193 16.549 10.6712Z" fill="#646464"/>
</svg>
