<svg width="28" height="28" viewBox="0 0 28 28" fill="none" xmlns="http://www.w3.org/2000/svg">
<path d="M2.22217 4.93066L2.23627 15.764H3.67155L11.6061 24.06C11.7738 24.2867 11.9922 24.4709 12.2439 24.598C12.4956 24.7251 12.7736 24.7914 13.0555 24.7918C13.5344 24.7918 13.9936 24.6015 14.3322 24.2629C14.6708 23.9243 14.8611 23.4651 14.8611 22.9862C14.8601 22.9006 14.853 22.8152 14.8399 22.7306C15.1192 22.8975 15.4384 22.9858 15.7638 22.9862C16.2427 22.9862 16.7019 22.796 17.0406 22.4574C17.3792 22.1188 17.5694 21.6595 17.5694 21.1807C17.5684 21.095 17.5613 21.0096 17.5482 20.925C17.8275 21.0919 18.1468 21.1803 18.4722 21.1807C18.951 21.1807 19.4103 20.9904 19.7489 20.6518C20.0875 20.3132 20.2777 19.854 20.2777 19.3751C20.2767 19.2895 20.2697 19.2041 20.2566 19.1194C20.5359 19.2864 20.8551 19.3747 21.1805 19.3751C21.6594 19.3751 22.1186 19.1849 22.4572 18.8463C22.7958 18.5077 22.9861 18.0484 22.9861 17.5696C22.986 17.095 22.7991 16.6396 22.4659 16.3018L22.443 16.2806C22.4046 16.243 22.3646 16.2071 22.3231 16.1731L16.9893 11.3612C16.9893 11.3612 13.6838 11.8855 12.419 12.0859C11.1542 12.2863 7.63883 11.8658 7.63883 7.639C7.63883 6.32275 8.60915 6.03092 9.22575 5.80523C9.84144 5.57863 11.7013 4.93066 11.7013 4.93066H2.22217ZM17.5694 4.93066C17.411 4.93058 17.2533 4.95133 17.1004 4.99238C17.0998 4.99238 17.0992 4.99238 17.0986 4.99238L17.0916 4.99414C17.0898 4.99473 17.088 4.99531 17.0863 4.9959C17.0222 5.01415 16.9592 5.03593 16.8976 5.06114L9.44439 7.639V8.09039C9.44439 9.33712 10.4546 10.3473 11.7013 10.3473C11.7769 10.3473 11.8481 10.3317 11.9217 10.3244L11.9306 10.335L12.1175 10.305C12.1351 10.3017 12.1529 10.2999 12.1704 10.2962L17.5694 9.44103C17.5694 9.44103 22.3098 13.6825 23.1377 14.5103C23.9321 15.3048 24.717 15.9039 24.7793 17.5696H26.5972V6.73622L22.9861 7.639L18.481 5.17928C18.4492 5.16066 18.4169 5.14302 18.384 5.12638L18.3417 5.10346H18.3346C18.0953 4.99047 17.8341 4.93148 17.5694 4.93066Z" fill="white"/>
</svg>
