<svg width="15" height="15" viewBox="0 0 15 15" fill="none" xmlns="http://www.w3.org/2000/svg">
<g clip-path="url(#clip0_481_45)">
<path d="M1.26393 1.35181C0.788058 1.35181 0.399933 1.73993 0.399933 2.21581V12.5838C0.399933 13.0597 0.788058 13.4478 1.26393 13.4478H13.9359C14.4118 13.4478 14.7999 13.0597 14.7999 12.5838V2.21581C14.7999 1.73993 14.4118 1.35181 13.9359 1.35181H1.26393ZM2.41593 7.39981H12.7839V10.8558H10.7679V12.2958L9.32793 10.8558H2.41593V7.39981ZM3.85593 8.55181C3.68268 8.55181 3.56793 8.66656 3.56793 8.83981V9.41581C3.56793 9.58906 3.68268 9.70381 3.85593 9.70381H4.43193C4.60518 9.70381 4.71993 9.58906 4.71993 9.41581V8.83981C4.71993 8.66656 4.60518 8.55181 4.43193 8.55181H3.85593ZM6.15993 8.55181C5.98668 8.55181 5.87193 8.66656 5.87193 8.83981V9.41581C5.87193 9.58906 5.98668 9.70381 6.15993 9.70381H6.73593C6.90918 9.70381 7.02393 9.58906 7.02393 9.41581V8.83981C7.02393 8.66656 6.90918 8.55181 6.73593 8.55181H6.15993ZM8.46393 8.55181C8.29068 8.55181 8.17593 8.66656 8.17593 8.83981V9.41581C8.17593 9.58906 8.29068 9.70381 8.46393 9.70381H9.03993C9.21318 9.70381 9.32793 9.58906 9.32793 9.41581V8.83981C9.32793 8.66656 9.21318 8.55181 9.03993 8.55181H8.46393ZM10.7679 8.55181C10.5947 8.55181 10.4799 8.66656 10.4799 8.83981V9.41581C10.4799 9.58906 10.5947 9.70381 10.7679 9.70381H11.3439C11.5172 9.70381 11.6319 9.58906 11.6319 9.41581V8.83981C11.6319 8.66656 11.5172 8.55181 11.3439 8.55181H10.7679Z" fill="#171A0F"/>
</g>
<defs>
<clipPath id="clip0_481_45">
<rect width="14.4" height="14.4" fill="white" transform="translate(0.399963 0.199951)"/>
</clipPath>
</defs>
</svg>
