<svg width="13" height="14" viewBox="0 0 13 14" fill="none" xmlns="http://www.w3.org/2000/svg">
<path d="M6.23983 12.4598C5.91991 12.4598 5.61319 12.2668 5.41921 11.9439L2.5196 7.95855C2.2271 7.54926 2.07983 7.08816 2.07983 6.5834V4.1398C2.07983 2.84996 3.12999 1.7998 4.41983 1.7998H9.35983C10.1652 1.7998 10.6598 2.45082 10.6598 2.91801C10.6598 3.13434 10.6141 3.31715 10.5633 3.45324C10.8203 3.61371 11.1798 3.93059 11.1798 4.4516C11.1798 4.81824 11.0072 5.06707 10.8355 5.22551C11.0041 5.40121 11.1798 5.67238 11.1798 6.03801C11.1798 6.5641 10.8376 6.85559 10.6091 6.99168C10.6324 7.15215 10.6598 7.37863 10.6598 7.54621C10.6598 8.03168 10.2119 8.53441 9.46343 8.53441C8.79616 8.55371 7.0239 8.55879 6.2246 8.5598C6.49476 9.1641 7.01069 10.329 7.10921 10.6043C7.13155 10.6713 7.15187 10.7231 7.17015 10.7708C7.22702 10.912 7.27983 11.0471 7.27983 11.2634C7.27983 12.0891 6.67147 12.4598 6.23983 12.4598Z" fill="white"/>
</svg>
