<svg width="26" height="27" viewBox="0 0 26 27" fill="none" xmlns="http://www.w3.org/2000/svg">
<path d="M20.5833 3.55933L19.5 5.72599L9.75 8.97599H5.41667C4.225 8.97599 3.25 9.95099 3.25 11.1427V15.476C3.25 16.6677 4.225 17.6427 5.41667 17.6427H7.58333V23.0593H9.75V17.6427L19.5 20.8927L20.5833 23.0593H22.75V15.1755C23.3953 14.8004 23.8333 14.1099 23.8333 13.3093C23.8333 12.5088 23.3953 11.8182 22.75 11.4431V3.55933H20.5833ZM20.5833 7.64933V18.9693L20.1855 18.836L11.9167 16.0811V10.5375L20.1855 7.78263L20.5833 7.64933ZM5.41667 11.1427H9.75V15.476H7.58333H5.41667V11.1427Z" fill="#0A1128"/>
</svg>
