<svg width="100" height="100" viewBox="0 0 100 100" fill="none" xmlns="http://www.w3.org/2000/svg">
<path d="M27.1992 8C17.7241 8 10 15.7241 10 25.1992V61.1992V62.8008V76.8008C10 86.2759 17.7241 94 27.1992 94H72.8008C82.2759 94 90 86.2759 90 76.8008V62.8008V61.1992V25.1992C90 15.7241 82.2759 8 72.8008 8H27.1992ZM48.1289 28H52.1289V42H66.1289V46H52.1289V60H48.1289V46H34.1289V42H48.1289V28ZM14 73.8047C17.1589 77.5855 21.9051 80 27.1992 80H72.8008C78.0949 80 82.8411 77.5855 86 73.8047V76.8008C86 84.1137 80.1137 90 72.8008 90H27.1992C19.8863 90 14 84.1137 14 76.8008V73.8047Z" fill="white"/>
</svg>
