<svg width="26" height="26" viewBox="0 0 26 26" fill="none" xmlns="http://www.w3.org/2000/svg">
<path d="M9.53333 1.7334L9.0983 4.75827L7.04843 8.57533C6.44436 9.69939 5.27138 10.4001 3.99478 10.4001H3.46666V21.6667H5.19999C6.31019 22.7769 7.81484 23.4001 9.38437 23.4001H18.2C18.6597 23.4001 19.1006 23.2174 19.4256 22.8924C19.7507 22.5673 19.9333 22.1264 19.9333 21.6667V20.7527C20.422 20.6529 20.8614 20.3876 21.1771 20.0015C21.4929 19.6154 21.6658 19.1322 21.6667 18.6334C21.6658 18.1034 21.4706 17.5921 21.1182 17.1963C21.5331 17.0429 21.891 16.7662 22.144 16.4034C22.3969 16.0406 22.5328 15.609 22.5333 15.1667C22.5329 14.8301 22.4541 14.4982 22.3031 14.1973C22.152 13.8964 21.933 13.6349 21.6633 13.4334C21.933 13.2319 22.152 12.9704 22.3031 12.6695C22.4541 12.3686 22.5329 12.0367 22.5333 11.7001C22.5333 11.1254 22.3051 10.5743 21.8987 10.168C21.4924 9.76167 20.9413 9.5334 20.3667 9.5334H12.1333C12.1333 9.5334 13 6.70286 13 6.06673C13 4.11586 13 1.7334 10.4 1.7334H9.53333Z" fill="#f1f0f0"/>
</svg>
