<svg width="23" height="23" viewBox="0 0 23 23" fill="none" xmlns="http://www.w3.org/2000/svg">
<g clip-path="url(#clip0_482_21)">
<path d="M4.692 22.356C4.6 22.356 4.508 22.31 4.416 22.264C4.278 22.172 4.186 21.942 4.232 21.758L6.256 14.214L0.183997 9.29196C-2.65799e-06 9.19996 -0.0460027 8.96996 -2.66358e-06 8.78596C0.0459973 8.60196 0.229997 8.46396 0.413997 8.46396L8.234 8.04996L11.04 0.735961C11.132 0.597961 11.316 0.459961 11.5 0.459961C11.684 0.459961 11.868 0.597961 11.914 0.735961L14.72 8.04996L22.54 8.46396C22.724 8.46396 22.908 8.60196 22.954 8.78596C23 8.96996 22.954 9.15396 22.816 9.29196L16.744 14.214L18.768 21.758C18.814 21.942 18.768 22.126 18.584 22.264C18.446 22.356 18.216 22.402 18.078 22.264L11.5 18.032L4.922 22.264C4.83 22.356 4.784 22.356 4.692 22.356Z" fill="#FFC000"/>
</g>
<defs>
<clipPath id="clip0_482_21">
<rect width="23" height="23" fill="white"/>
</clipPath>
</defs>
</svg>
