<svg width="26" height="26" viewBox="0 0 26 26" fill="none" xmlns="http://www.w3.org/2000/svg">
<path d="M5.41667 3.25C4.225 3.25 3.25 4.225 3.25 5.41667V7.58333C3.25 8.775 4.225 9.75 5.41667 9.75H9.75L11.9167 11.9167V5.41667C11.9167 4.225 10.9417 3.25 9.75 3.25H5.41667ZM5.41667 5.41667H9.75V7.58333H5.41667V5.41667ZM16.25 5.41667C15.0583 5.41667 14.0833 6.39167 14.0833 7.58333V14.0833L16.25 11.9167H20.5833C21.775 11.9167 22.75 10.9417 22.75 9.75V7.58333C22.75 6.39167 21.775 5.41667 20.5833 5.41667H16.25ZM16.25 7.58333H20.5833V9.75H16.25V7.58333ZM9.75 13C9.17536 13 8.62426 13.2283 8.21794 13.6346C7.81161 14.0409 7.58333 14.592 7.58333 15.1667C7.58333 15.7413 7.81161 16.2924 8.21794 16.6987C8.62426 17.1051 9.17536 17.3333 9.75 17.3333C10.3246 17.3333 10.8757 17.1051 11.2821 16.6987C11.6884 16.2924 11.9167 15.7413 11.9167 15.1667C11.9167 14.592 11.6884 14.0409 11.2821 13.6346C10.8757 13.2283 10.3246 13 9.75 13ZM9.75 19.5C8.30375 19.5 5.41667 20.2258 5.41667 21.6667V22.75H14.0833V21.6667C14.0833 20.2258 11.1963 19.5 9.75 19.5Z" fill="#0A1128"/>
</svg>
