<svg width="28" height="28" viewBox="0 0 28 28" fill="none" xmlns="http://www.w3.org/2000/svg">
<path d="M3.46981 5.50359C3.72401 10.4143 5.95746 15.0012 9.5164 18.2449C13.1102 21.4499 17.9032 23.1978 22.8139 22.9436C23.5409 22.9059 23.8643 22.2795 23.8398 21.8057L23.6432 18.0083C23.6127 17.4186 23.1205 16.9625 22.5301 16.9789C21.8477 16.998 20.9877 17.0024 20.4407 16.9352C19.849 16.8617 19.1332 16.697 18.6286 16.568C18.2328 16.467 17.8143 16.596 17.5403 16.8988L15.2652 19.4074C13.5625 18.6201 12.1824 17.6719 10.9998 16.5995C9.81107 15.5339 8.72538 14.2591 7.7665 12.6469L10.0268 10.1238C10.2247 9.9031 10.3237 9.61593 10.3088 9.32815C10.3032 9.21996 10.2814 9.11153 10.2434 9.00719C10.0641 8.51964 9.82525 7.82364 9.69104 7.24264C9.56777 6.70554 9.48339 5.85076 9.43182 5.16893C9.38729 4.58111 8.88274 4.13861 8.29311 4.16913L4.4957 4.3657C4.02183 4.39023 3.43218 4.77656 3.46981 5.50359ZM18.7234 18.8194C19.2734 18.945 19.7607 19.0337 20.1756 19.0849C20.5337 19.1293 20.9818 19.1527 21.5331 19.1567L21.6181 20.799C20.2176 20.7761 18.8259 20.5682 17.4807 20.1909L18.7234 18.8194ZM7.36867 6.38655C7.42958 6.93446 7.49923 7.37887 7.58029 7.7294C7.67406 8.13677 7.81252 8.61124 7.99427 9.1464L6.7595 10.524C6.24424 9.22506 5.89485 7.86113 5.72637 6.47156L7.36867 6.38655Z" fill="#0A1128"/>
</svg>
