<svg width="26" height="26" viewBox="0 0 26 26" fill="none" xmlns="http://www.w3.org/2000/svg">
<path d="M13 2.16675C9.73741 2.16675 6.82904 3.63539 4.84327 5.92668L2.16667 3.25008V9.75008H8.66667L6.3667 7.45011C7.95714 5.55167 10.3346 4.33341 13 4.33341C17.7786 4.33341 21.6667 8.2215 21.6667 13.0001C21.6667 17.7787 17.7786 21.6667 13 21.6667C8.22142 21.6667 4.33334 17.7787 4.33334 13.0001H2.16667C2.16667 18.9736 7.0265 23.8334 13 23.8334C18.9735 23.8334 23.8333 18.9736 23.8333 13.0001C23.8333 7.02658 18.9735 2.16675 13 2.16675ZM11.9167 6.50008V13.4486L15.4841 17.016L17.016 15.4841L14.0833 12.5515V6.50008H11.9167Z" fill="#1E88E5"/>
</svg>
