<svg width="26" height="26" viewBox="0 0 26 26" fill="none" xmlns="http://www.w3.org/2000/svg">
<path d="M14.6034 21.623L14.8862 19.6569L16.2186 17.1758C16.6112 16.4452 17.3737 15.9897 18.2035 15.9897H18.5468V8.66638H17.4201C16.6985 7.94475 15.7204 7.53971 14.7002 7.53971L8.97009 7.53971C8.67128 7.53971 8.3847 7.65842 8.17341 7.86971C7.96212 8.081 7.84342 8.36757 7.84342 8.66638V9.26052C7.52576 9.32536 7.2402 9.49782 7.03494 9.74878C6.82968 9.99974 6.71729 10.3138 6.71675 10.638C6.71733 10.9825 6.84416 11.3149 7.07324 11.5722C6.8036 11.6719 6.57094 11.8517 6.40651 12.0876C6.24208 12.3234 6.15376 12.6039 6.15342 12.8914C6.15368 13.1102 6.20492 13.326 6.30309 13.5215C6.40125 13.7171 6.54364 13.8871 6.71895 14.018C6.54364 14.149 6.40125 14.319 6.30309 14.5146C6.20492 14.7101 6.15368 14.9259 6.15342 15.1447C6.15342 15.5182 6.3018 15.8764 6.56591 16.1406C6.83002 16.4047 7.18824 16.553 7.56175 16.553H12.9134C12.9134 16.553 12.3501 18.3929 12.3501 18.8064C12.3501 20.0744 12.3501 21.623 14.0401 21.623H14.6034Z" fill="#0A1128"/>
<path d="M13 23.4004C18.7434 23.4004 23.4 18.7438 23.4 13.0004C23.4 7.25699 18.7434 2.60039 13 2.60039C7.25663 2.60039 2.60003 7.25699 2.60003 13.0004C2.60003 18.7438 7.25663 23.4004 13 23.4004ZM7.81649 14.0941L7.82516 14.0517C7.82689 14.043 7.82863 14.0352 7.83036 14.0265L8.69269 9.70879C8.69269 9.70619 8.69356 9.70446 8.69442 9.70186L8.69529 9.69926C8.81836 9.10992 9.34096 8.66706 9.96669 8.66706H14.3746C15.1589 8.66706 15.912 8.97906 16.4667 9.53372H17.3334V15.1671H17.069C16.4312 15.1671 15.8444 15.5172 15.542 16.0797L14.7334 18.7516V19.9337C14.7334 19.9337 14.7134 19.9337 14.2801 19.9337C13.4134 19.9337 12.7834 19.1763 12.7834 18.2004C12.7834 17.4672 13.2167 15.6004 13.2167 15.6004L9.10003 15.6004C8.38243 15.6004 7.80002 15.018 7.80002 14.3004C7.80002 14.2311 7.80956 14.1652 7.81996 14.0985L7.81649 14.0941Z" fill="#646464" fill-opacity="0.5"/>
</svg>
