<svg width="50" height="50" viewBox="0 0 50 50" fill="none" xmlns="http://www.w3.org/2000/svg">
<g clip-path="url(#clip0_1634_2261)">
<path d="M34.8437 7.9375C33.6992 7.9375 32.6797 8.42969 31.4062 9V8.96875C29.2734 9.88281 24.6875 12 24.6875 12H4C1.78906 12 0 13.7891 0 16V35C0 37.2109 1.78906 39 4 39H33C34.0625 39 34.9258 38.5625 35.5937 38.0625C37.4492 38.7383 39.1406 39 41.3125 39C42.8477 39 44.5195 38.5938 46 38.1562C47.4805 37.7188 48.7695 37.2422 49.3125 37.0625C49.7305 36.9258 50.0078 36.5312 50 36.0938V21.8125C49.9961 21.5547 49.8984 21.3086 49.7187 21.125C49.7187 21.125 42.6484 13.6406 39.5 10.5938C37.8984 8.99219 36.6992 8.13672 35.3437 7.96875C35.1758 7.94922 35.0078 7.9375 34.8437 7.9375ZM34.5625 9.9375C34.75 9.91016 34.9336 9.91797 35.0937 9.9375C35.7383 10.0195 36.5977 10.5039 38.0937 12C38.0937 12.0117 38.0937 12.0195 38.0937 12.0312C41.0586 14.9023 47.6328 21.8281 48 22.2188V35.375C47.3125 35.6172 46.5391 35.9258 45.4375 36.25C44.043 36.6641 42.4766 37 41.3125 37C38.9883 37 37.5469 36.7695 35.5625 35.9375C33.582 35.1094 31.0469 33.6094 26.8125 31.2188C26.8047 31.2148 26.7891 31.2227 26.7812 31.2188C25.4844 30.4727 24.2305 29.7266 23.5625 29.0312C23.2266 28.6797 23.0586 28.3711 23 28.0938C22.9414 27.8164 22.9453 27.5273 23.1875 27.0625C23.5977 26.2461 24.0078 26.0508 24.9687 26C25.9297 25.9492 27.375 26.2109 29.1562 26.6562C32.4883 27.4648 37.2812 28.4688 37.2812 28.4688C37.6445 28.5977 38.0508 28.5039 38.3242 28.2344C38.5937 27.9609 38.6875 27.5547 38.5586 27.1914C38.4297 26.8281 38.1016 26.5703 37.7187 26.5312C37.7187 26.5312 37.1445 26.4062 37 26.375V16C37 13.7891 35.2109 12 33 12H29.5312C30.4883 11.5703 31.5234 11.0977 32.1875 10.8125C32.1992 10.8125 32.207 10.8125 32.2187 10.8125C33.3047 10.3281 34.0039 10.0195 34.5625 9.9375ZM4 14H33C34.1914 14 35 14.8086 35 16V25.9375C33.3672 25.5781 31.3477 25.1289 29.6562 24.7188C29.6445 24.7148 29.6367 24.7227 29.625 24.7188C27.8242 24.2695 26.2812 23.9258 24.875 24C23.4766 24.0742 22.1328 24.7695 21.4375 26.125C21.4297 26.1406 21.4141 26.1406 21.4062 26.1562C21.0078 26.9336 20.8711 27.7578 21.0312 28.5C21.1914 29.2539 21.6211 29.8828 22.125 30.4062C23.1289 31.457 24.5156 32.2227 25.8125 32.9688C29.0195 34.7812 31.2734 36.0781 33.125 37C33.082 37.0039 33.043 37 33 37H4C2.80859 37 2 36.1914 2 35V16C2 14.8086 2.80859 14 4 14ZM12.5 17C11.3789 17 10.2695 17.3906 9.4375 18.1875C8.60547 18.9844 8.09375 20.1719 8.09375 21.5938C8.09375 23.2461 8.80078 24.8281 9.875 25.9688C9.97656 26.2188 9.91797 26.2539 9.875 26.3438C9.85547 26.3867 9.84375 26.4336 9.8125 26.4688C9.78125 26.5039 9.76953 26.5117 9.6875 26.5938C8.8125 26.957 7.95312 27.3633 7.3125 27.9375C6.57031 28.6055 6 29.4648 6 30.5V31C6 31.6719 6.30469 32.3125 6.75 32.75C7.19531 33.1875 7.71875 33.4688 8.3125 33.6562C9.50391 34.0273 10.957 34.0938 12.5 34.0938C14.043 34.0938 15.4961 34.0273 16.6875 33.6562C17.2812 33.4688 17.8047 33.1875 18.25 32.75C18.6953 32.3125 19 31.6719 19 31V30.5C19 29.4648 18.4141 28.6055 17.6562 27.9375C16.9687 27.332 16.0703 26.8711 15.0937 26.5C15.0703 26.4375 15.0469 26.2695 15.125 26C16.0742 24.8633 16.9062 23.3242 16.9062 21.5938C16.9062 18.8281 14.7812 17 12.5 17ZM12.5 19C13.8203 19 14.9062 19.7578 14.9062 21.5938C14.9062 22.7383 14.2344 24.0898 13.4687 24.9375C13.375 25.0273 13.3008 25.1328 13.25 25.25C12.9766 26.0039 13.0195 26.7148 13.2187 27.2188C13.3164 27.4727 13.4492 27.6797 13.5937 27.8438C13.6641 27.9258 13.7422 27.9883 13.8437 28.0625C13.8984 28.1016 14.0937 28.1406 14.1875 28.1875L14.1562 28.25C15.0625 28.5664 15.8516 29.0039 16.3437 29.4375C16.8359 29.8711 17 30.2344 17 30.5V31C17 31.1797 16.9922 31.2266 16.875 31.3438C16.7578 31.4609 16.4687 31.5938 16.0625 31.7188C15.2539 31.9727 13.957 32.0938 12.5 32.0938C11.043 32.0938 9.74609 31.9727 8.9375 31.7188C8.53125 31.5938 8.24219 31.4609 8.125 31.3438C8.00781 31.2266 8 31.1797 8 31V30.5C8 30.2344 8.17187 29.8398 8.65625 29.4062C9.14062 28.9727 9.89453 28.5664 10.75 28.25C10.8828 28.1914 11 28.1055 11.0937 28C11.0586 28.0352 11.1953 27.918 11.3125 27.7812C11.4297 27.6445 11.5703 27.4609 11.6875 27.2188C11.918 26.7344 12.0195 25.9688 11.7187 25.2188C11.6641 25.0781 11.5781 24.9492 11.4687 24.8438C10.7344 24.1836 10.0937 22.7812 10.0937 21.5938C10.0937 20.6172 10.3945 20.0273 10.8125 19.625C11.2305 19.2227 11.8203 19 12.5 19Z" fill="#0A1128"/>
</g>
<defs>
<clipPath id="clip0_1634_2261">
<rect width="50" height="50" fill="white"/>
</clipPath>
</defs>
</svg>
