<svg width="16" height="15" viewBox="0 0 16 15" fill="none" xmlns="http://www.w3.org/2000/svg">
<g clip-path="url(#clip0_481_36)">
<path d="M3.66194 0.352783L0.952942 3.06178L5.25494 7.34578L7.95494 4.64578L7.54094 4.23178L6.47894 5.30278L6.06494 4.88878L7.13594 3.82678L6.67694 3.36778L5.90294 4.15078L5.48894 3.73678L6.27194 2.96278L5.81294 2.50378L4.75094 3.57478L4.33694 3.16078L5.40794 2.09878L4.94894 1.63978L4.17494 2.42278L3.76094 2.00878L4.54394 1.23478L3.66194 0.352783ZM13.2199 0.775783C12.8611 0.775783 12.5033 0.916408 12.2299 1.18978L11.7169 1.69378L5.65994 7.75078L2.07794 11.3418C2.02057 11.38 1.97894 11.4374 1.96094 11.5038L1.38494 13.6638C1.35907 13.7628 1.38832 13.8674 1.46032 13.9394C1.53232 14.0114 1.63694 14.0407 1.73594 14.0148L3.89594 13.4388C3.94432 13.423 3.98819 13.3949 4.02194 13.3578L4.03994 13.3488C4.05344 13.3353 4.06582 13.3195 4.07594 13.3038L13.7059 3.68278V3.67378L13.8949 3.48478C14.0434 3.33628 14.2099 3.16978 14.2099 3.16978C14.7567 2.62191 14.7567 1.73653 14.2099 1.18978C13.9354 0.916408 13.5788 0.775783 13.2199 0.775783ZM13.2199 1.35178C13.4404 1.35178 13.6497 1.43953 13.8049 1.59478C14.1267 1.91653 14.1267 2.44303 13.8049 2.76478C13.7678 2.80191 13.7374 2.83228 13.7059 2.86378L12.5359 1.69378L12.6349 1.59478C12.7913 1.43841 12.9994 1.35178 13.2199 1.35178ZM10.9969 7.62478L10.2229 8.39878L9.97994 8.15578L8.04494 10.0908L12.3379 14.3838L15.0469 11.6748L14.4529 11.0808L13.6789 11.8548L13.2649 11.4498L14.0479 10.6668L13.5889 10.2168L12.5269 11.2788L12.1129 10.8738L13.1839 9.80278L12.7249 9.35278L11.9509 10.1268L11.5369 9.72178L12.3199 8.93878L11.8609 8.48878L10.7989 9.55078L10.3849 9.14578L11.4559 8.07478L10.9969 7.62478ZM2.39294 12.1338L3.26594 13.0068L2.06894 13.3308L2.39294 12.1338Z" fill="#171A0F"/>
</g>
<defs>
<clipPath id="clip0_481_36">
<rect width="14.4" height="14.4" fill="white" transform="translate(0.799927 0.199951)"/>
</clipPath>
</defs>
</svg>
