<svg width="26" height="26" viewBox="0 0 26 26" fill="none" xmlns="http://www.w3.org/2000/svg">
<path d="M6.24008 1.87891V14.56H4.68008V11.96H3.64008V14.56H2.08008V23.92H10.9201H18.2001H23.9201V7.8H18.2001V5.86523L16.6401 5.34523V2.08H15.6001V4.99789L14.5601 4.65156V2.08H13.5201V4.30523L6.24008 1.87891ZM7.28008 3.32211L17.1601 6.61477V22.88H14.5601V21.2448C15.4523 21.0109 16.1201 20.2022 16.1201 19.24C16.1201 18.0974 15.1827 17.16 14.0401 17.16C12.8975 17.16 11.9601 18.0974 11.9601 19.24C11.9601 20.2022 12.6279 21.0109 13.5201 21.2448V22.88H10.9201V14.56H7.28008V3.32211ZM8.32008 6.24V7.28H11.4401V6.24H8.32008ZM8.32008 8.32V9.36H16.1201V8.32H8.32008ZM19.2401 9.88H21.8401V11.44H19.2401V9.88ZM8.32008 10.4V11.44H12.4801V10.4H8.32008ZM13.5201 10.4V11.44H16.1201V10.4H13.5201ZM8.32008 12.48V13.52H16.1201V12.48H8.32008ZM19.2401 12.48H21.8401V14.04H19.2401V12.48ZM11.9601 14.56V15.6H16.1201V14.56H11.9601ZM19.2401 15.08H21.8401V16.64H19.2401V15.08ZM4.16008 16.64H5.72008V17.68H4.16008V16.64ZM7.28008 16.64H8.84008V17.68H7.28008V16.64ZM19.2401 17.68H21.8401V19.24H19.2401V17.68ZM4.16008 18.72H5.72008V19.76H4.16008V18.72ZM7.28008 18.72H8.84008V19.76H7.28008V18.72ZM19.2401 20.28H21.8401V21.84H19.2401V20.28ZM4.16008 20.8H5.72008V21.84H4.16008V20.8ZM7.28008 20.8H8.84008V21.84H7.28008V20.8Z" fill="#0A1128"/>
</svg>
