<svg width="28" height="28" viewBox="0 0 28 28" fill="none" xmlns="http://www.w3.org/2000/svg">
<path d="M5.83314 4.02832C4.83557 4.02832 4.02758 4.83631 4.02758 5.83388V5.93262L2.56409 6.29937C2.10819 6.41312 2.10819 7.06019 2.56409 7.17394L4.02758 7.54069V7.63943C4.02758 8.637 4.83557 9.44499 5.83314 9.44499H19.3748C20.3724 9.44499 21.1804 8.637 21.1804 7.63943V5.83388C21.1804 4.83631 20.3724 4.02832 19.3748 4.02832H5.83314ZM6.73592 5.83388C7.23425 5.83388 7.63869 6.23832 7.63869 6.73665C7.63869 7.23499 7.23425 7.63943 6.73592 7.63943C6.23758 7.63943 5.83314 7.23499 5.83314 6.73665C5.83314 6.23832 6.23758 5.83388 6.73592 5.83388ZM10.347 5.83388C10.8454 5.83388 11.2498 6.23832 11.2498 6.73665C11.2498 7.23499 10.8454 7.63943 10.347 7.63943C9.84869 7.63943 9.44425 7.23499 9.44425 6.73665C9.44425 6.23832 9.84869 5.83388 10.347 5.83388ZM13.9581 5.83388C14.4565 5.83388 14.8609 6.23832 14.8609 6.73665C14.8609 7.23499 14.4565 7.63943 13.9581 7.63943C13.4598 7.63943 13.0554 7.23499 13.0554 6.73665C13.0554 6.23832 13.4598 5.83388 13.9581 5.83388ZM7.63869 11.2505C6.64112 11.2505 5.83314 12.0585 5.83314 13.0561V13.1548L4.36965 13.5216C3.91375 13.6353 3.91375 14.2824 4.36965 14.3962L5.83314 14.7629V14.8617C5.83314 15.8592 6.64112 16.6672 7.63869 16.6672H21.1804C22.1779 16.6672 22.9859 15.8592 22.9859 14.8617V13.0561C22.9859 12.0585 22.1779 11.2505 21.1804 11.2505H7.63869ZM8.54147 13.0561C9.0398 13.0561 9.44425 13.4605 9.44425 13.9589C9.44425 14.4572 9.0398 14.8617 8.54147 14.8617C8.04314 14.8617 7.63869 14.4572 7.63869 13.9589C7.63869 13.4605 8.04314 13.0561 8.54147 13.0561ZM12.1526 13.0561C12.6509 13.0561 13.0554 13.4605 13.0554 13.9589C13.0554 14.4572 12.6509 14.8617 12.1526 14.8617C11.6542 14.8617 11.2498 14.4572 11.2498 13.9589C11.2498 13.4605 11.6542 13.0561 12.1526 13.0561ZM15.7637 13.0561C16.262 13.0561 16.6665 13.4605 16.6665 13.9589C16.6665 14.4572 16.262 14.8617 15.7637 14.8617C15.2654 14.8617 14.8609 14.4572 14.8609 13.9589C14.8609 13.4605 15.2654 13.0561 15.7637 13.0561ZM19.3748 13.0561C19.8731 13.0561 20.2776 13.4605 20.2776 13.9589C20.2776 14.4572 19.8731 14.8617 19.3748 14.8617C18.8765 14.8617 18.472 14.4572 18.472 13.9589C18.472 13.4605 18.8765 13.0561 19.3748 13.0561ZM9.44425 18.4728C8.44668 18.4728 7.63869 19.2808 7.63869 20.2783V20.3771L6.17521 20.7438C5.7193 20.8576 5.7193 21.5046 6.17521 21.6184L7.63869 21.9851V22.0839C7.63869 23.0814 8.44668 23.8894 9.44425 23.8894H22.9859C23.9835 23.8894 24.7915 23.0814 24.7915 22.0839V20.2783C24.7915 19.2808 23.9835 18.4728 22.9859 18.4728H9.44425ZM10.347 20.2783C10.8454 20.2783 11.2498 20.6828 11.2498 21.1811C11.2498 21.6794 10.8454 22.0839 10.347 22.0839C9.84869 22.0839 9.44425 21.6794 9.44425 21.1811C9.44425 20.6828 9.84869 20.2783 10.347 20.2783ZM13.9581 20.2783C14.4565 20.2783 14.8609 20.6828 14.8609 21.1811C14.8609 21.6794 14.4565 22.0839 13.9581 22.0839C13.4598 22.0839 13.0554 21.6794 13.0554 21.1811C13.0554 20.6828 13.4598 20.2783 13.9581 20.2783Z" fill="white"/>
</svg>
