<svg width="15" height="15" viewBox="0 0 15 15" fill="none" xmlns="http://www.w3.org/2000/svg">
<path d="M13.9723 1.02734C13.6875 0.742578 13.3137 0.599609 12.9399 0.599609C12.5661 0.599609 12.1922 0.742578 11.9075 1.02734C11.9075 1.02734 11.8864 1.04727 11.8594 1.07539C11.8571 1.07773 11.8536 1.07891 11.8512 1.08125L1.29028 11.641C1.25395 11.6785 1.227 11.7242 1.21293 11.7758L0.61059 14.0223C0.582465 14.1254 0.611762 14.2355 0.687934 14.3117C0.745355 14.3691 0.821527 14.3996 0.900043 14.3996C0.925824 14.3996 0.951605 14.3961 0.977387 14.3891L3.22387 13.7867C3.27543 13.7727 3.32114 13.7457 3.35864 13.7082L13.9184 3.14961C13.9219 3.14609 13.9231 3.14141 13.9254 3.13789C13.9524 3.11094 13.9711 3.09219 13.9711 3.09219C14.543 2.52148 14.543 1.59688 13.9723 1.02734ZM13.5481 1.45156C13.8832 1.78672 13.8832 2.33281 13.5481 2.66797C13.4485 2.76641 13.3641 2.85195 13.2914 2.92461L12.075 1.7082C12.2133 1.56992 12.3317 1.45156 12.3317 1.45156C12.4934 1.28867 12.7102 1.19961 12.9399 1.19961C13.1696 1.19961 13.3852 1.28984 13.5481 1.45156ZM1.68168 12.3453L2.65434 13.318L1.32426 13.6754L1.68168 12.3453Z" fill="#FFC000"/>
</svg>
