<svg width="18" height="18" viewBox="0 0 18 18" fill="none" xmlns="http://www.w3.org/2000/svg">
<g clip-path="url(#clip0_6973_1535)">
<path d="M14.7617 8.70787C15.072 6.28337 14.6138 4.28696 13.4303 2.92417C12.3621 1.69228 10.7309 1.01416 8.83794 1.01416C6.90044 1.01416 5.23916 1.7093 4.15913 2.97261C2.99402 4.33671 2.55939 6.31087 2.89976 8.69347C2.41408 9.17784 2.13916 9.91095 2.13916 10.737C2.13916 11.9715 3.20478 12.9664 4.04131 13.3474C4.91712 16.0128 7.76969 17.0928 8.83794 17.0928C9.89963 17.0928 12.7378 16.0206 13.6254 13.3775C14.5771 12.9848 15.5367 11.8825 15.5367 10.737C15.5367 9.94499 15.25 9.2001 14.7617 8.70787ZM11.8542 9.38861H5.82172V8.71834H11.8542V9.38861Z" fill="#D91313"/>
</g>
<defs>
<clipPath id="clip0_6973_1535">
<rect width="16.7568" height="16.7568" fill="white" transform="translate(0.459473 0.675537)"/>
</clipPath>
</defs>
</svg>
