<svg width="21" height="21" viewBox="0 0 21 21" fill="none" xmlns="http://www.w3.org/2000/svg">
<g clip-path="url(#clip0_1514_431)">
<path d="M4.11516 19.6073C4.03447 19.6073 3.95378 19.5669 3.87309 19.5266C3.75206 19.4459 3.67137 19.2442 3.71172 19.0828L5.48687 12.4663L0.161403 8.14946C2.50749e-05 8.06877 -0.0403194 7.86705 2.50684e-05 7.70567C0.0403695 7.54429 0.201747 7.42326 0.363125 7.42326L7.22169 7.06016L9.6827 0.645387C9.76339 0.524354 9.92477 0.40332 10.0861 0.40332C10.2475 0.40332 10.4089 0.524354 10.4492 0.645387L12.9103 7.06016L19.7688 7.42326C19.9302 7.42326 20.0916 7.54429 20.1319 7.70567C20.1723 7.86705 20.1319 8.02843 20.0109 8.14946L14.6854 12.4663L16.4606 19.0828C16.5009 19.2442 16.4606 19.4056 16.2992 19.5266C16.1782 19.6073 15.9764 19.6476 15.8554 19.5266L10.0861 15.8149L4.31688 19.5266C4.23619 19.6073 4.19585 19.6073 4.11516 19.6073Z" fill="#FFC000" fill-opacity="0.2"/>
</g>
<defs>
<clipPath id="clip0_1514_431">
<rect width="20.1722" height="20.1722" fill="white"/>
</clipPath>
</defs>
</svg>
