<svg width="18" height="18" viewBox="0 0 18 18" fill="none" xmlns="http://www.w3.org/2000/svg">
<path d="M11.6034 16.623L11.8862 14.6569L13.2186 12.1758C13.6112 11.4452 14.3737 10.9897 15.2035 10.9897H15.5468L15.5468 3.66638H14.4201C13.6985 2.94475 12.7204 2.53971 11.7002 2.53971L5.97009 2.53971C5.67128 2.53971 5.3847 2.65842 5.17341 2.86971C4.96212 3.081 4.84342 3.36757 4.84342 3.66638V4.26052C4.52576 4.32536 4.2402 4.49782 4.03494 4.74878C3.82968 4.99974 3.71729 5.31384 3.71675 5.63805C3.71733 5.98254 3.84416 6.31487 4.07324 6.57217C3.8036 6.67189 3.57094 6.85174 3.40651 7.08757C3.24208 7.32339 3.15376 7.60389 3.15342 7.89138C3.15368 8.1102 3.20492 8.32596 3.30309 8.52152C3.40125 8.71709 3.54364 8.88709 3.71895 9.01805C3.54364 9.149 3.40125 9.319 3.30309 9.51457C3.20492 9.71014 3.15368 9.92589 3.15342 10.1447C3.15342 10.5182 3.3018 10.8764 3.56591 11.1406C3.83002 11.4047 4.18824 11.553 4.56175 11.553L9.91342 11.553C9.91342 11.553 9.35009 13.3929 9.35009 13.8064C9.35009 15.0744 9.35009 16.623 11.0401 16.623H11.6034Z" fill="#0A1128"/>
</svg>
