<svg width="26" height="26" viewBox="0 0 26 26" fill="none" xmlns="http://www.w3.org/2000/svg">
<path d="M13.0001 2.59998C7.2666 2.59998 2.6001 7.26648 2.6001 13C2.6001 18.7335 7.2666 23.4 13.0001 23.4C18.7336 23.4 23.4001 18.7335 23.4001 13C23.4001 7.26648 18.7336 2.59998 13.0001 2.59998ZM13.0001 4.33331C13.3408 4.33331 13.6938 4.47444 14.097 4.84959C14.5001 5.22473 14.9174 5.82977 15.2751 6.61677C15.5409 7.20154 15.7578 7.91004 15.9454 8.66664H10.0548C10.2424 7.91004 10.4593 7.20154 10.7251 6.61677C11.0828 5.82977 11.5001 5.22473 11.9032 4.84959C12.3064 4.47444 12.6594 4.33331 13.0001 4.33331ZM9.6096 5.02055C9.44649 5.29866 9.28969 5.58793 9.14749 5.90076C8.77693 6.716 8.47953 7.65095 8.25544 8.66664H5.49801C6.4336 7.04695 7.87239 5.75726 9.6096 5.02055ZM16.3906 5.02055C18.1278 5.75726 19.5666 7.04695 20.5022 8.66664H17.7448C17.5207 7.65095 17.2233 6.716 16.8527 5.90076C16.7105 5.58793 16.5537 5.29866 16.3906 5.02055ZM4.72952 10.4H7.96091C7.85903 11.2321 7.8001 12.1003 7.8001 13C7.8001 13.8996 7.85903 14.7679 7.96091 15.6H4.72952C4.47302 14.7796 4.33343 13.9064 4.33343 13C4.33343 12.0936 4.47302 11.2203 4.72952 10.4ZM9.7264 10.4H16.2738C16.3868 11.2268 16.4668 12.0878 16.4668 13C16.4668 13.9122 16.3868 14.7731 16.2738 15.6H9.7264C9.61337 14.7731 9.53343 13.9122 9.53343 13C9.53343 12.0878 9.61337 11.2268 9.7264 10.4ZM18.0393 10.4H21.2707C21.5272 11.2203 21.6668 12.0936 21.6668 13C21.6668 13.9064 21.5272 14.7796 21.2707 15.6H18.0393C18.1412 14.7679 18.2001 13.8996 18.2001 13C18.2001 12.1003 18.1412 11.2321 18.0393 10.4ZM5.49801 17.3333H8.25544C8.47953 18.349 8.77693 19.284 9.14749 20.0992C9.28969 20.412 9.44649 20.7013 9.6096 20.9794C7.87239 20.2427 6.4336 18.953 5.49801 17.3333ZM10.0548 17.3333H15.9454C15.7578 18.0899 15.5409 18.7984 15.2751 19.3832C14.9174 20.1702 14.5001 20.7752 14.097 21.1504C13.6938 21.5255 13.3408 21.6666 13.0001 21.6666C12.6594 21.6666 12.3064 21.5255 11.9032 21.1504C11.5001 20.7752 11.0828 20.1702 10.7251 19.3832C10.4593 18.7984 10.2424 18.0899 10.0548 17.3333ZM17.7448 17.3333H20.5022C19.5666 18.953 18.1278 20.2427 16.3906 20.9794C16.5537 20.7013 16.7105 20.412 16.8527 20.0992C17.2233 19.284 17.5207 18.349 17.7448 17.3333Z" fill="#0A1128"/>
</svg>
