<svg width="27" height="26" viewBox="0 0 27 26" fill="none" xmlns="http://www.w3.org/2000/svg">
<path d="M11.4744 0.740234C5.53576 0.740234 0.721313 5.12746 0.721313 10.5397C0.721313 13.3203 1.9985 15.8244 4.03965 17.6079C3.74585 18.5663 3.13487 19.5202 2.01581 20.3698L2.0139 20.3717C1.90741 20.4127 1.81857 20.4897 1.76276 20.5894C1.70695 20.6891 1.68769 20.8053 1.70832 20.9177C1.72894 21.0302 1.78815 21.1319 1.87569 21.2052C1.96323 21.2785 2.07358 21.3188 2.18764 21.3191C2.22232 21.319 2.25688 21.3151 2.29075 21.3076C4.18194 21.301 5.79605 20.4923 7.08114 19.4779C8.42366 20.0269 9.90761 20.3392 11.4744 20.3392C17.413 20.3392 22.2275 15.9519 22.2275 10.5397C22.2275 5.12746 17.413 0.740234 11.4744 0.740234ZM7.56419 7.59986H15.3846C15.9242 7.59986 16.3622 8.03888 16.3622 8.57981C16.3622 9.12074 15.9242 9.55975 15.3846 9.55975H7.56419C7.02458 9.55975 6.58663 9.12074 6.58663 8.57981C6.58663 8.03888 7.02458 7.59986 7.56419 7.59986ZM7.56419 11.5196H13.4295C13.9691 11.5196 14.4071 11.9587 14.4071 12.4996C14.4071 13.0405 13.9691 13.4795 13.4295 13.4795H7.56419C7.02458 13.4795 6.58663 13.0405 6.58663 12.4996C6.58663 11.9587 7.02458 11.5196 7.56419 11.5196ZM23.9649 12.6623C22.9571 17.7492 18.4092 21.7047 12.7746 22.2378C14.1901 23.4853 16.151 24.259 18.3173 24.259C19.3497 24.259 20.3323 24.0782 21.2347 23.7594C22.4344 24.5996 23.8865 25.2226 25.5496 25.2274C25.5823 25.2346 25.6155 25.2385 25.6489 25.2389C25.7636 25.2389 25.8745 25.1984 25.9624 25.1247C26.0504 25.0509 26.1096 24.9486 26.1299 24.8355C26.1501 24.7224 26.1301 24.6057 26.0732 24.5059C26.0163 24.4061 25.9263 24.3296 25.8189 24.2896C24.9235 23.6084 24.349 22.8596 24.005 22.0962C25.3235 20.8683 26.1377 19.2192 26.1377 17.3993C26.1377 15.56 25.3081 13.8941 23.9649 12.6623Z" fill="#0A1128"/>
</svg>
