<svg width="22" height="22" viewBox="0 0 22 22" fill="none" xmlns="http://www.w3.org/2000/svg">
<path d="M10.3812 0.879883C10.1697 0.879883 9.98756 1.03113 9.94802 1.24082L9.71428 2.51957C9.49428 2.58832 9.28115 2.67426 9.0749 2.7791L8.02474 2.02113C7.85115 1.89566 7.61224 1.91285 7.45927 2.06582L6.51912 2.99223C6.36787 3.14176 6.34552 3.37895 6.46756 3.55426L7.2049 4.6216C7.09834 4.82785 7.00896 5.04098 6.93677 5.25926L5.65802 5.46551C5.44662 5.49988 5.29021 5.68207 5.28849 5.89691L5.2799 7.21691C5.27818 7.43004 5.43115 7.61395 5.64084 7.65176L6.92303 7.88551C6.99178 8.10379 7.07943 8.3152 7.18256 8.51973L6.42115 9.57504C6.29568 9.74863 6.31287 9.98926 6.46412 10.1422L7.39224 11.0807C7.54178 11.2319 7.77896 11.2543 7.95428 11.1322L9.03365 10.388C9.2399 10.4929 9.45131 10.5805 9.66787 10.651L9.88615 11.9452C9.92224 12.1566 10.1044 12.3113 10.3176 12.313L11.6376 12.3199H11.6393C11.8541 12.3199 12.038 12.1652 12.0741 11.9538L12.2924 10.6613C12.5072 10.5925 12.7169 10.5066 12.918 10.4035L13.9922 11.1666C14.1658 11.2904 14.403 11.2714 14.556 11.1219L15.4944 10.1938C15.6474 10.0425 15.668 9.80191 15.5443 9.6266L14.7829 8.55754C14.8877 8.35645 14.9754 8.14848 15.0458 7.93363L16.3452 7.71363C16.5566 7.67754 16.7113 7.49535 16.713 7.28223L16.7199 5.96223C16.7216 5.74738 16.5669 5.56348 16.3538 5.52738L15.0647 5.3091C14.9977 5.09254 14.9101 4.88113 14.8087 4.6766L15.5666 3.60754C15.6904 3.43395 15.6715 3.19504 15.5219 3.04379L14.5955 2.10535C14.4426 1.95066 14.2019 1.93176 14.0266 2.05551L12.9696 2.80832C12.7668 2.70176 12.5571 2.61238 12.3405 2.54191L12.1343 1.25801C12.0999 1.0466 11.9177 0.890196 11.7029 0.888476L10.3829 0.879883H10.3812ZM10.9827 4.85363C11.4382 4.85363 11.8937 5.02723 12.2391 5.37785C12.9249 6.07223 12.9197 7.19113 12.2254 7.87691C11.8816 8.21723 11.433 8.38738 10.9844 8.38738C10.5272 8.38738 10.0718 8.21207 9.72631 7.86316C9.04052 7.16879 9.0474 6.04988 9.74177 5.36238C10.0855 5.02207 10.5341 4.85363 10.9827 4.85363ZM6.34552 12.3199C5.32287 12.3199 4.8399 12.5158 4.32943 12.7238L4.0974 12.8166C3.03521 13.2291 1.20646 14.0902 1.12912 14.128C0.909119 14.2311 0.814588 14.4924 0.917713 14.7124C1.02256 14.9324 2.98021 19.2757 3.08162 19.4338C3.21224 19.6383 3.48381 19.6968 3.68834 19.5661L4.77459 18.8718C5.22834 18.5864 5.40537 18.5125 6.05678 18.8443L6.93334 19.2911C7.92506 19.7964 9.28459 20.4891 9.71428 20.6936C10.3605 21.003 10.8985 21.1199 11.3591 21.1199C12.1566 21.1199 12.7186 20.771 13.2068 20.4702C13.3116 20.4049 13.4165 20.3396 13.523 20.2794C14.269 19.8549 19.4837 16.45 20.0302 16.0702C20.6713 15.625 21.034 15.1541 21.1062 14.6729C21.156 14.3446 21.1044 14.0214 20.7212 13.7636C20.2193 13.4268 19.408 13.9338 19.408 13.9338L15.3174 16.6185C15.0974 17.3593 14.4082 18.0399 12.9799 18.0399H10.6699C9.75381 18.0399 8.5249 17.7718 7.97662 17.6411C7.96459 17.6377 7.80818 17.5999 7.80818 17.5999C7.61912 17.55 7.4799 17.3782 7.4799 17.1736C7.4799 16.9313 7.67756 16.7336 7.9199 16.7336C7.96287 16.7336 8.04193 16.7508 8.04193 16.7508C8.44412 16.8505 9.75896 17.1599 10.6699 17.1599H12.9799C13.9905 17.1599 14.5199 16.7474 14.5199 16.0599C14.5199 15.4291 14.018 14.9599 12.9799 14.9599C12.1222 14.9599 11.1099 14.8018 10.1268 14.5354C9.47709 14.36 8.93568 12.9936 7.7549 12.5158C7.65693 12.4763 7.21006 12.3199 6.34552 12.3199ZM15.2074 12.3285C14.6488 12.3285 14.0868 12.5433 13.7722 12.7272C13.7035 12.7702 12.5674 13.4766 11.7321 13.9974C12.1205 14.0472 12.5296 14.0799 12.9799 14.0799C13.248 14.0799 13.4818 14.1125 13.7035 14.1607L16.0393 12.7118C16.0908 12.6774 16.1613 12.6396 16.2404 12.6C15.9826 12.4488 15.6422 12.3285 15.2074 12.3285ZM17.8233 12.9266C17.758 12.9266 17.6893 12.93 17.6154 12.9369C17.3352 12.9627 17.0138 13.1449 17.0138 13.1449L14.6763 14.5938C15.0115 14.8568 15.2246 15.1954 15.3243 15.5597L17.9935 13.81L18.7549 13.3099C18.7154 13.2652 18.6707 13.2222 18.6208 13.181C18.614 13.1741 18.6071 13.1689 18.5985 13.1638C18.5504 13.1243 18.4919 13.0882 18.4301 13.0555C18.418 13.0504 18.406 13.0452 18.3922 13.04C18.3269 13.0091 18.253 12.9833 18.1705 12.9644C18.1568 12.961 18.1413 12.9593 18.1276 12.9558C18.0382 12.9386 17.9402 12.9266 17.8285 12.9266C17.8268 12.9266 17.8251 12.9266 17.8233 12.9266Z" fill="#0A1128" fill-opacity="0.8"/>
</svg>
