<svg width="32" height="32" viewBox="0 0 32 32" fill="none" xmlns="http://www.w3.org/2000/svg">
<path d="M16 0C7.164 0 0 7.164 0 16C0 24.836 7.164 32 16 32C24.836 32 32 24.836 32 16C32 7.164 24.836 0 16 0ZM6.66667 25.5213C8.22267 20.8547 12.8893 22.676 13.6667 20.148V18.4627C13.3173 18.2747 12.316 16.984 12.2107 15.976C11.9347 15.952 11.5027 15.6787 11.3747 14.5973C11.3067 14.0173 11.5787 13.6907 11.7427 13.588C11.7427 13.588 11.332 12.652 11.332 11.7227C11.3333 8.96 12.7013 6.66667 16 6.66667C17.7813 6.66667 18.3333 7.92933 18.3333 7.92933C19.9253 7.92933 20.6667 9.67467 20.6667 11.7213C20.6667 12.7413 20.256 13.5867 20.256 13.5867C20.4213 13.6893 20.6933 14.016 20.6253 14.596C20.4973 15.6773 20.0653 15.9507 19.7893 15.9747C19.684 16.9827 18.684 18.2733 18.3333 18.4613V20.1467C19.1107 22.676 23.7773 20.8547 25.3333 25.5213C25.3333 25.5213 21.8427 29.3333 16 29.3333C10.124 29.3333 6.66667 25.5213 6.66667 25.5213Z" fill="#FFC000"/>
</svg>
