<svg width="20" height="20" viewBox="0 0 20 20" fill="none" xmlns="http://www.w3.org/2000/svg">
<path d="M1.9999 0C1.1159 0 0.399902 0.716 0.399902 1.6V13.6C0.399902 14.484 1.1159 15.2 1.9999 15.2H5.1999V18.4C5.1999 18.6122 5.28419 18.8157 5.43422 18.9657C5.58425 19.1157 5.78773 19.2 5.9999 19.2C6.13325 19.1998 6.26443 19.1662 6.38149 19.1023C6.49856 19.0385 6.59781 18.9464 6.67022 18.8344L9.3999 15.2H17.9999C18.8839 15.2 19.5999 14.484 19.5999 13.6V1.6C19.5999 0.716 18.8839 0 17.9999 0H1.9999ZM4.50771 1.6L6.66396 3.10625L6.79209 3.88438L9.30772 6.39844L10.378 5.32812C9.85083 4.43132 9.82525 3.45278 10.6437 2.63438C11.4413 1.83678 12.8147 1.41957 13.9171 1.68438L11.5999 4L13.1999 5.6L15.5155 3.28437C15.7803 4.38598 15.3631 5.76021 14.5655 6.55781C13.7471 7.37621 12.7694 7.35064 11.8718 6.82344L6.20459 12.4906C5.79179 12.9034 5.12208 12.9034 4.70928 12.4906C4.29648 12.0778 4.29648 11.4081 4.70928 10.9953L8.39678 7.30781L5.88428 4.79219L5.10615 4.6625L3.5999 2.50781L4.50771 1.6ZM12.6921 9.09219L14.4687 10.8688C14.9103 11.3104 14.9103 12.0272 14.4687 12.4688C14.0271 12.9103 13.3103 12.9103 12.8687 12.4688L11.0921 10.6922L12.6921 9.09219Z" fill="#0A1128" fill-opacity="0.8"/>
</svg>
