<svg width="20" height="15" viewBox="0 0 20 15" fill="none" xmlns="http://www.w3.org/2000/svg">
<path d="M16.725 0.000264681C16.6953 0.00338988 16.6672 0.00651468 16.6375 0.0127647C16.3422 0.0533899 16.0938 0.256515 15.9938 0.537765C15.8938 0.819015 15.9594 1.13151 16.1625 1.35026C17.5516 2.90495 18.4 4.95183 18.4 7.21276C18.4 9.47058 17.5578 11.53 16.1625 13.0878C15.9406 13.294 15.8547 13.6096 15.9406 13.9003C16.0266 14.1909 16.2687 14.4081 16.5672 14.4612C16.8656 14.5143 17.1688 14.394 17.35 14.1503C18.9984 12.3096 20 9.87214 20 7.21276C20 4.55339 19.0031 2.12526 17.3625 0.287765C17.2047 0.0987023 16.9703 -0.00598532 16.725 0.000264681ZM3.175 0.0127647C2.96719 0.0299523 2.77344 0.129952 2.6375 0.287765C0.996875 2.12683 0 4.5612 0 7.21276C0 9.87839 1.00156 12.3112 2.65 14.1503C2.83125 14.394 3.13438 14.5143 3.43281 14.4612C3.73125 14.4081 3.97344 14.1909 4.05938 13.9003C4.14531 13.6096 4.05938 13.294 3.8375 13.0878C2.44219 11.5315 1.6 9.47839 1.6 7.21276C1.6 4.9612 2.44844 2.90651 3.8375 1.35026C4.06094 1.10651 4.11094 0.750265 3.96406 0.454952C3.81875 0.158077 3.50469 -0.0169229 3.175 0.0127647ZM13.8625 2.95026C13.8328 2.95339 13.8047 2.95651 13.775 2.96276C13.4797 3.00339 13.2312 3.20651 13.1313 3.48776C13.0312 3.76901 13.0969 4.08151 13.3 4.30026C13.9859 5.07526 14.4 6.0862 14.4 7.21276C14.4 8.33152 13.9844 9.34714 13.3 10.1253C13.0828 10.3346 13.0016 10.6487 13.0922 10.9378C13.1812 11.2253 13.425 11.4393 13.7219 11.4893C14.0203 11.5393 14.3203 11.419 14.5 11.1753C15.4313 10.1175 16 8.72839 16 7.21276C16 5.68933 15.4359 4.29401 14.5 3.23776C14.3422 3.0487 14.1078 2.94401 13.8625 2.95026ZM6.025 2.97526C5.81719 2.99245 5.62344 3.09245 5.4875 3.25026C4.56094 4.30651 4 5.70183 4 7.21276C4 8.75183 4.58281 10.1643 5.5375 11.2253C5.83438 11.5534 6.34063 11.5784 6.66875 11.2815C6.99688 10.9846 7.02188 10.4784 6.725 10.1503C6.025 9.37214 5.6 8.35183 5.6 7.21276C5.6 6.09714 6.00625 5.08933 6.6875 4.31276C6.91094 4.06902 6.96094 3.71276 6.81406 3.41745C6.66875 3.12058 6.35469 2.94558 6.025 2.97526ZM10 5.21276C8.89688 5.21276 8 6.10964 8 7.21276C8 8.31589 8.89688 9.21276 10 9.21276C11.1031 9.21276 12 8.31589 12 7.21276C12 6.10964 11.1031 5.21276 10 5.21276Z" fill="#00FF00"/>
</svg>
