<svg width="19" height="20" viewBox="0 0 19 20" fill="none" xmlns="http://www.w3.org/2000/svg">
<path d="M18.1599 11.3337H10.5066C10.0399 11.3337 9.66658 11.707 9.66658 12.1737V18.327C9.66658 19.2537 10.4133 20.0003 11.3399 20.0003H16.9999C18.1066 20.0003 18.9999 19.107 18.9999 18.0003V12.1737C18.9999 11.707 18.6266 11.3337 18.1599 11.3337ZM16.0333 13.7003H12.6333C12.3999 13.7003 12.2133 13.507 12.2133 13.2737C12.2133 13.0403 12.3999 12.847 12.6333 12.847H16.0333C16.2666 12.847 16.4533 13.0403 16.4533 13.2737C16.4533 13.507 16.2666 13.7003 16.0333 13.7003ZM18.3333 4.66699H14.3126V3.19166C14.2659 2.97833 14.1259 2.79166 13.9126 2.71166C13.6659 2.60499 13.3793 2.66499 13.1859 2.85166L11.2459 4.79833C11.0793 4.92499 10.9793 5.12499 10.9859 5.33833C10.9859 5.53833 11.0793 5.73166 11.2459 5.85166V5.85833L13.1859 7.79833C13.3793 7.98499 13.6659 8.04499 13.9126 7.93833C14.1259 7.85833 14.2659 7.67166 14.3126 7.45833V6.00033H18.3333C18.7019 6.00033 18.9999 5.70233 18.9999 5.33366C18.9999 4.96499 18.7019 4.66699 18.3333 4.66699ZM4.99992 10.0003C7.57992 10.0003 9.66658 7.91366 9.66658 5.33366C9.66658 2.75366 7.57992 0.666992 4.99992 0.666992C2.41992 0.666992 0.333252 2.75366 0.333252 5.33366C0.333252 7.91366 2.41992 10.0003 4.99992 10.0003ZM4.33325 3.33366C4.33325 2.96699 4.63325 2.66699 4.99992 2.66699C5.36658 2.66699 5.66658 2.96699 5.66658 3.33366V7.33366C5.66658 7.70033 5.36658 8.00033 4.99992 8.00033C4.63325 8.00033 4.33325 7.70033 4.33325 7.33366V3.33366ZM8.05259 14.7923L6.11258 12.8523C5.91925 12.6657 5.63259 12.6057 5.38592 12.7123C5.17259 12.7923 5.03259 12.979 4.98592 13.1923V14.667H0.999919C0.631252 14.667 0.333252 14.965 0.333252 15.3337C0.333252 15.7023 0.631252 16.0003 0.999919 16.0003H4.98592V17.459C5.03259 17.6723 5.17259 17.859 5.38592 17.939C5.63259 18.0457 5.91925 17.9857 6.11258 17.799L8.05259 15.8523C8.21925 15.7257 8.31925 15.5257 8.31258 15.3123C8.31258 15.1123 8.21925 14.919 8.05259 14.799V14.7923Z" fill="#0A1128" fill-opacity="0.8"/>
</svg>
