<svg width="28" height="28" viewBox="0 0 28 28" fill="none" xmlns="http://www.w3.org/2000/svg">
<path d="M14.0054 1.8501C11.796 1.85084 9.62837 2.45313 7.73522 3.59235C5.84207 4.73157 4.29482 6.36472 3.25944 8.3166C2.22747 10.268 1.74865 12.4643 1.87476 14.6682C2.00087 16.872 2.72711 18.9994 3.97494 20.8203L1.85544 26.1501L7.52544 24.2385C9.11895 25.238 10.9225 25.8545 12.7945 26.0394C14.6664 26.2243 16.5558 25.9726 18.314 25.3041C20.0723 24.6356 21.6516 23.5685 22.9278 22.1866C24.2041 20.8047 25.1425 19.1457 25.6694 17.34C26.1921 15.5347 26.287 13.6325 25.9468 11.7841C25.6065 9.93577 24.8404 8.19206 23.7092 6.6912C22.5775 5.18757 21.1117 3.96755 19.4277 3.1274C17.7437 2.28726 15.8874 1.84999 14.0054 1.8501Z" stroke="black" stroke-opacity="0.35" stroke-width="3" stroke-linecap="round" stroke-linejoin="round"/>
</svg>
