<svg width="28" height="24" viewBox="0 0 28 24" fill="none" xmlns="http://www.w3.org/2000/svg">
<path d="M13.9998 5.9252L15.3822 4.343C16.2296 3.19561 17.4564 2.38583 18.8445 2.05759C20.2326 1.72934 21.6922 1.90389 22.9638 2.5502C23.9353 3.08563 24.7442 3.87354 25.305 4.83069C25.8658 5.78784 26.1577 6.87869 26.1498 7.988C26.1505 8.8923 25.9537 9.78585 25.5731 10.6062C25.1926 11.4265 24.6375 12.1538 23.9466 12.7373L14.6694 21.8417C14.5824 21.9332 14.4776 22.006 14.3616 22.0558C14.2456 22.1056 14.1206 22.1313 13.9944 22.1313C13.8681 22.1313 13.7432 22.1056 13.6271 22.0558C13.5111 22.006 13.4064 21.9332 13.3194 21.8417L4.05297 12.7373C3.36208 12.1538 2.80696 11.4265 2.42641 10.6062C2.04586 9.78585 1.84906 8.8923 1.84977 7.988C1.84185 6.87869 2.1337 5.78784 2.6945 4.83069C3.25529 3.87354 4.0642 3.08563 5.03577 2.5502C6.30645 1.90305 7.76539 1.72722 9.15344 2.05397C10.5415 2.38072 11.7688 3.18888 12.6174 4.3349L13.9998 5.9252Z" stroke="black" stroke-opacity="0.35" stroke-width="3" stroke-linecap="round" stroke-linejoin="round"/>
</svg>
