<svg width="30" height="26" viewBox="0 0 30 26" fill="none" xmlns="http://www.w3.org/2000/svg">
<path fill-rule="evenodd" clip-rule="evenodd" d="M26.6945 0.98125C25.1739 0.9075 21.8839 0.8125 15.0001 0.8125C8.11637 0.8125 4.82637 0.9075 3.30574 0.98125C2.21387 1.03438 1.11699 1.74063 0.989494 3.06063C0.958244 3.38875 0.937619 3.78125 0.937619 4.25C0.937619 4.71875 0.957619 5.11125 0.989494 5.43937C1.11699 6.75938 2.21387 7.46563 3.30574 7.51875C4.82637 7.5925 8.11637 7.6875 15.0001 7.6875C21.8839 7.6875 25.1739 7.5925 26.6945 7.51875C27.7864 7.46563 28.8832 6.75938 29.0107 5.43937C29.042 5.11125 29.0626 4.71875 29.0626 4.25C29.0626 3.78125 29.0426 3.38875 29.0107 3.06063C28.8832 1.74063 27.7864 1.03438 26.6945 0.98125ZM15.0001 9.5625C21.8839 9.5625 25.1739 9.6575 26.6945 9.73125C27.7864 9.78438 28.8832 10.4906 29.0107 11.8106C29.042 12.1388 29.0626 12.5312 29.0626 13C29.0626 13.4688 29.0426 13.8612 29.0107 14.1894C28.8832 15.5094 27.7864 16.2156 26.6945 16.2687C25.1739 16.3425 21.8839 16.4375 15.0001 16.4375C8.11637 16.4375 4.82637 16.3425 3.30574 16.2687C2.21387 16.2156 1.11699 15.5094 0.989494 14.1894C0.953193 13.794 0.935881 13.3971 0.937619 13C0.937619 12.5312 0.957619 12.1388 0.989494 11.8106C1.11699 10.4906 2.21387 9.78438 3.30574 9.73125C4.82637 9.6575 8.11637 9.5625 15.0001 9.5625ZM15.0001 18.3125C21.8839 18.3125 25.1739 18.4075 26.6945 18.4813C27.7864 18.5344 28.8832 19.2406 29.0107 20.5606C29.042 20.8888 29.0626 21.2812 29.0626 21.75C29.0626 22.2188 29.0426 22.6112 29.0107 22.9394C28.8832 24.2594 27.7864 24.9656 26.6945 25.0187C25.1739 25.0925 21.8839 25.1875 15.0001 25.1875C8.11637 25.1875 4.82637 25.0925 3.30574 25.0187C2.21387 24.9656 1.11699 24.2594 0.989494 22.9394C0.953193 22.544 0.935881 22.1471 0.937619 21.75C0.937619 21.2812 0.957619 20.8888 0.989494 20.5606C1.11699 19.2406 2.21387 18.5344 3.30574 18.4813C4.82637 18.4075 8.11637 18.3125 15.0001 18.3125Z" fill="black" fill-opacity="0.35"/>
</svg>
