<svg width="84" height="21" viewBox="0 0 84 21" fill="none" xmlns="http://www.w3.org/2000/svg">
<path d="M11.1518 16H9.1506V11.0228H3.21554V16H1.21438V4.59168H3.21554V9.26105H9.1506V4.59168H11.1518V16ZM21.9385 16.2052C20.3193 16.2052 19.0878 15.7834 18.244 14.9396C17.4116 14.0958 16.9954 12.9498 16.9954 11.5017V4.59168H19.0137V11.4332C19.0137 12.3569 19.2646 13.0866 19.7663 13.6226C20.2794 14.1585 21.0035 14.4264 21.9385 14.4264C22.8735 14.4264 23.5918 14.1585 24.0936 13.6226C24.5953 13.0866 24.8461 12.3569 24.8461 11.4332V4.59168H26.8644V11.4846C26.8644 12.9441 26.4425 14.0958 25.5987 14.9396C24.7663 15.7834 23.5462 16.2052 21.9385 16.2052ZM38.4737 16H32.7097V4.59168H38.3198C39.3346 4.59168 40.1271 4.87104 40.6972 5.42977C41.2787 5.97709 41.5695 6.66695 41.5695 7.49934C41.5695 8.1835 41.3757 8.76504 40.988 9.24395C40.6117 9.71145 40.1442 10.0022 39.5855 10.1162C40.2012 10.2075 40.72 10.5267 41.1419 11.0741C41.5752 11.61 41.7919 12.2257 41.7919 12.9213C41.7919 13.8335 41.4954 14.5747 40.9025 15.1448C40.3209 15.7149 39.5113 16 38.4737 16ZM37.9093 9.31236C38.411 9.31236 38.8044 9.17553 39.0894 8.90187C39.3745 8.6282 39.517 8.27472 39.517 7.84142C39.517 7.39672 39.3745 7.03754 39.0894 6.76388C38.8044 6.49021 38.411 6.35338 37.9093 6.35338H34.7108V9.31236H37.9093ZM37.9948 14.2383C38.5421 14.2383 38.9697 14.1015 39.2776 13.8278C39.5855 13.5427 39.7394 13.1493 39.7394 12.6476C39.7394 12.2029 39.5855 11.8323 39.2776 11.5359C38.9697 11.228 38.5421 11.0741 37.9948 11.0741H34.7108V14.2383H37.9948Z" fill="#0A1128"/>
<path d="M54.251 16H47.2213V4.59168H49.2224V14.2383H54.251V16ZM68.47 14.5462C67.3753 15.6522 65.9785 16.2052 64.2795 16.2052C62.5805 16.2052 61.1837 15.6522 60.0891 14.5462C58.9944 13.4287 58.4471 12.0148 58.4471 10.3044C58.4471 8.594 58.9944 7.18577 60.0891 6.07972C61.1837 4.96226 62.5805 4.40353 64.2795 4.40353C65.9785 4.40353 67.3753 4.96226 68.47 6.07972C69.5646 7.18577 70.112 8.594 70.112 10.3044C70.112 12.0148 69.5646 13.4287 68.47 14.5462ZM64.2795 14.4264C65.4084 14.4264 66.3206 14.0387 67.0162 13.2634C67.7117 12.4766 68.0595 11.4903 68.0595 10.3044C68.0595 9.10711 67.7117 8.12079 67.0162 7.34541C66.3206 6.57003 65.4084 6.18234 64.2795 6.18234C63.1393 6.18234 62.2213 6.57003 61.5258 7.34541C60.8416 8.12079 60.4996 9.10711 60.4996 10.3044C60.4996 11.5017 60.8416 12.488 61.5258 13.2634C62.2213 14.0387 63.1393 14.4264 64.2795 14.4264ZM79.7459 16H77.7447V6.35338H74.2897V4.59168H83.2009V6.35338H79.7459V16Z" fill="#FFC000"/>
</svg>
